<svg width="3928" height="2629" xmlns="http://www.w3.org/2000/svg" xmlns:xlink="http://www.w3.org/1999/xlink" xml:space="preserve" overflow="hidden"><defs><clipPath id="clip0"><rect x="11771" y="3024" width="3928" height="2629"/></clipPath><clipPath id="clip1"><rect x="11772" y="3025" width="3925" height="2626"/></clipPath><clipPath id="clip2"><rect x="11772" y="3025" width="3925" height="2626"/></clipPath><clipPath id="clip3"><rect x="12101" y="3095" width="3231" height="2004"/></clipPath><clipPath id="clip4"><rect x="12101" y="3095" width="3231" height="2004"/></clipPath><clipPath id="clip5"><rect x="12101" y="3095" width="3231" height="2004"/></clipPath><clipPath id="clip6"><rect x="11772" y="3025" width="3925" height="2626"/></clipPath><clipPath id="clip7"><rect x="11772" y="3025" width="3925" height="2626"/></clipPath><clipPath id="clip8"><rect x="11772" y="3025" width="3925" height="2626"/></clipPath><clipPath id="clip9"><rect x="11772" y="3025" width="3925" height="2626"/></clipPath><clipPath id="clip10"><rect x="11772" y="3025" width="3925" height="2626"/></clipPath><clipPath id="clip11"><rect x="11772" y="3025" width="3925" height="2626"/></clipPath><clipPath id="clip12"><rect x="11772" y="3025" width="3925" height="2626"/></clipPath><clipPath id="clip13"><rect x="11772" y="3025" width="3925" height="2626"/></clipPath><clipPath id="clip14"><rect x="11772" y="3025" width="3925" height="2626"/></clipPath><clipPath id="clip15"><rect x="11772" y="3025" width="3925" height="2626"/></clipPath><clipPath id="clip16"><rect x="11772" y="3025" width="3925" height="2626"/></clipPath><clipPath id="clip17"><rect x="11772" y="3025" width="3925" height="2626"/></clipPath><clipPath id="clip18"><rect x="11772" y="3025" width="3925" height="2626"/></clipPath><clipPath id="clip19"><rect x="11772" y="3025" width="3925" height="2626"/></clipPath><clipPath id="clip20"><rect x="11772" y="3025" width="3925" height="2626"/></clipPath><clipPath id="clip21"><rect x="11772" y="3025" width="3925" height="2626"/></clipPath><clipPath id="clip22"><rect x="11772" y="3025" width="3925" height="2626"/></clipPath><clipPath id="clip23"><rect x="11772" y="3025" width="3925" height="2626"/></clipPath><clipPath id="clip24"><rect x="11772" y="3025" width="3925" height="2626"/></clipPath><clipPath id="clip25"><rect x="11772" y="3025" width="3925" height="2626"/></clipPath><clipPath id="clip26"><rect x="11772" y="3025" width="3925" height="2626"/></clipPath><clipPath id="clip27"><rect x="11772" y="3025" width="3925" height="2626"/></clipPath><clipPath id="clip28"><rect x="11772" y="3025" width="3925" height="2626"/></clipPath><clipPath id="clip29"><rect x="11772" y="3025" width="3925" height="2626"/></clipPath><clipPath id="clip30"><rect x="11772" y="3025" width="3925" height="2626"/></clipPath><clipPath id="clip31"><rect x="11772" y="3025" width="3925" height="2626"/></clipPath><clipPath id="clip32"><rect x="11772" y="3025" width="3925" height="2626"/></clipPath><clipPath id="clip33"><rect x="11772" y="3025" width="3925" height="2626"/></clipPath><clipPath id="clip34"><rect x="11772" y="3025" width="3925" height="2626"/></clipPath><clipPath id="clip35"><rect x="11772" y="3025" width="3925" height="2626"/></clipPath><clipPath id="clip36"><rect x="11772" y="3025" width="3925" height="2626"/></clipPath><clipPath id="clip37"><rect x="11772" y="3025" width="3925" height="2626"/></clipPath><clipPath id="clip38"><rect x="11772" y="3025" width="3925" height="2626"/></clipPath><clipPath id="clip39"><rect x="11772" y="3025" width="3925" height="2626"/></clipPath><clipPath id="clip40"><rect x="11772" y="3025" width="3925" height="2626"/></clipPath><clipPath id="clip41"><rect x="11772" y="3025" width="3925" height="2626"/></clipPath><clipPath id="clip42"><rect x="11772" y="3025" width="3925" height="2626"/></clipPath><clipPath id="clip43"><rect x="11772" y="3025" width="3925" height="2626"/></clipPath><clipPath id="clip44"><rect x="11772" y="3025" width="3925" height="2626"/></clipPath><clipPath id="clip45"><rect x="11772" y="3025" width="3925" height="2626"/></clipPath><clipPath id="clip46"><rect x="11772" y="3025" width="3925" height="2626"/></clipPath><clipPath id="clip47"><rect x="11772" y="3025" width="3925" height="2626"/></clipPath><clipPath id="clip48"><rect x="11772" y="3025" width="3925" height="2626"/></clipPath><clipPath id="clip49"><rect x="11772" y="3025" width="3925" height="2626"/></clipPath><clipPath id="clip50"><rect x="11772" y="3025" width="3925" height="2626"/></clipPath><clipPath id="clip51"><rect x="11772" y="3025" width="3925" height="2626"/></clipPath><clipPath id="clip52"><rect x="11772" y="3025" width="3925" height="2626"/></clipPath><clipPath id="clip53"><rect x="11772" y="3025" width="3925" height="2626"/></clipPath><clipPath id="clip54"><rect x="11772" y="3025" width="3925" height="2626"/></clipPath><clipPath id="clip55"><rect x="11772" y="3025" width="3925" height="2626"/></clipPath><clipPath id="clip56"><rect x="11772" y="3025" width="3925" height="2626"/></clipPath><clipPath id="clip57"><rect x="11772" y="3025" width="3925" height="2626"/></clipPath><clipPath id="clip58"><rect x="11772" y="3025" width="3925" height="2626"/></clipPath><clipPath id="clip59"><rect x="11772" y="3025" width="3925" height="2626"/></clipPath><clipPath id="clip60"><rect x="11772" y="3025" width="3925" height="2626"/></clipPath><clipPath id="clip61"><rect x="11772" y="3025" width="3925" height="2626"/></clipPath><clipPath id="clip62"><rect x="11772" y="3025" width="3925" height="2626"/></clipPath><clipPath id="clip63"><rect x="11772" y="3025" width="3925" height="2626"/></clipPath><clipPath id="clip64"><rect x="11772" y="3025" width="3925" height="2626"/></clipPath><clipPath id="clip65"><rect x="11772" y="3025" width="3925" height="2626"/></clipPath><clipPath id="clip66"><rect x="11772" y="3025" width="3925" height="2626"/></clipPath><clipPath id="clip67"><rect x="11772" y="3025" width="3925" height="2626"/></clipPath><clipPath id="clip68"><rect x="11772" y="3025" width="3925" height="2626"/></clipPath><clipPath id="clip69"><rect x="11772" y="3025" width="3925" height="2626"/></clipPath><clipPath id="clip70"><rect x="11772" y="3025" width="3925" height="2626"/></clipPath><clipPath id="clip71"><rect x="11772" y="3025" width="3925" height="2626"/></clipPath></defs><g clip-path="url(#clip0)" transform="translate(-11771 -3024)"><rect x="11772" y="3025" width="3925" height="2626" fill="#FFFFFF"/><g clip-path="url(#clip1)"><path d="M12101.5 4873.66 15328.5 4873.66M12101.5 4651.65 15328.5 4651.65M12101.5 4429.65 15328.5 4429.65M12101.5 4207.64 15328.5 4207.64M12101.5 3984.63 15328.5 3984.63M12101.5 3762.62 15328.5 3762.62M12101.5 3540.62 15328.5 3540.62M12101.5 3317.61 15328.5 3317.61M12101.5 3095.5 15328.5 3095.5" stroke="#D9D9D9" stroke-width="3.4375" stroke-linejoin="round" stroke-miterlimit="10" fill="none"/></g><g clip-path="url(#clip2)"><path d="M12101.5 5096.5 15328.5 5096.5" stroke="#D9D9D9" stroke-width="3.4375" stroke-linejoin="round" stroke-miterlimit="10" fill="none" fill-rule="evenodd"/></g><g clip-path="url(#clip3)"><path d="M12101 3816.12 12106.4 3791.12 12112.4 3845.13 12117.4 3765.12 12123.4 3825.13 12129.4 3709.12 12134.4 3778.12 12140.4 3791.12 12146.4 3702.12 12151.4 3678.12 12157.4 3707.12 12162.4 3731.12 12168.4 3656.12 12174.4 3689.12 12179.4 3642.12 12185.4 3662.12 12190.4 3678.12 12196.4 3629.12 12202.4 3640.12 12207.4 3573.12 12213.4 3538 12218.4 3762.12 12224.4 3791.12 12230.4 3838.13 12235.4 3751.12 12241.4 3782.12 12246.4 3807.12 12252.4 3773.12 12258.4 3787.12 12263.4 3669.12 12269.4 3720.12 12275.4 3665.12 12280.4 3673.12 12286.4 3667.12 12291.4 3678.12 12297.4 3665.12 12303.4 3747.12 12308.4 3793.12 12314.4 3740.12 12319.4 3691.12 12325.4 3678.12 12331.4 3738.12 12336.4 3711.12 12342.4 3687.12 12347.4 3673.12 12353.4 3665.12 12359.4 3747.12 12364.4 3731.12 12370.4 3662.12 12375.4 3716.12 12381.4 3658.12 12387.4 3622.12 12392.4 3711.12 12398.4 3653.12 12404.4 3616.12 12409.4 3640.12 12415.4 3625.12 12420.4 3685.12 12426.4 3745.12 12432.4 3725.12 12437.4 3667.12 12443.4 3727.12 12448.4 3640.12 12454.4 3678.12 12460.4 3700.12 12465.4 3631.12 12471.4 3698.12 12476.4 3700.12 12482.4 3656.12 12488.4 3691.12 12493.4 3622.12 12499.4 3640.12 12504.4 3571.12 12510.4 3591.12 12516.4 3638.12 12521.4 3580.12 12527.4 3622.12 12533.4 3636.12 12538.4 3642.12 12544.4 3562.12 12549.4 3633.12 12555.4 3582.12 12561.4 3549.12 12566.4 3605.12 12572.4 3629.12 12577.4 3569.12 12583.4 3591.12 12589.4 3551.12 12594.4 3591.12 12600.4 3629.12 12605.4 3562.12 12611.4 3593.12 12617.4 3622.12 12622.4 3613.12 12628.4 3580.12 12633.4 3633.12 12639.4 3544.12 12645.4 3613.12 12650.4 3631.12 12656.4 3576.12 12662.4 3636.12 12667.4 3633.12 12673.4 3638.12 12678.4 3573.12 12684.4 3578.12 12690.4 3582.12 12695.4 3596.12 12701.4 3598.12 12706.4 3596.12 12712.4 3682.12 12718.4 3605.12 12723.4 3613.12 12729.4 3620.12 12734.4 3629.12 12740.4 3678.12 12746.4 3696.12 12751.4 3669.12 12757.4 3656.12 12762.4 3649.12 12768.4 3709.12 12774.4 3702.12 12779.4 3693.12 12785.4 3638.12 12791.4 3676.12 12796.4 3747.12 12802.4 3691.12 12807.4 3771.12 12813.4 3705.12 12819.4 3762.12 12824.4 3725.12 12830.4 3760.12 12835.4 3787.12 12841.4 3800.12 12847.4 3791.12 12852.4 3758.12 12858.4 3800.12 12863.4 3796.12 12869.4 3851.13 12875.4 3829.13 12880.4 3831.13 12886.4 3833.13 12891.4 3889.13 12897.4 3896.13 12903.4 3833.13 12908.4 3800.12 12914.4 3771.12 12920.4 3791.12 12925.4 3778.12 12931.4 3816.12 12936.4 3845.13 12942.4 3811.12 12948.4 3896.13 12953.4 3882.13 12959.4 3847.13 12964.4 3947.13 12970.4 3922.13 12976.4 3889.13 12981.4 3949.13 12987.4 3949.13 12992.4 3929.13 12998.4 4000 13004.4 3742.12 13009.4 3711.12 13015.4 3807.12 13020.4 3767.12 13026.4 3791.12 13032.4 3776.12 13037.4 3802.12 13043.4 3807.12 13049.4 3796.12 13054.4 3822.13 13060.4 3851.13 13065.4 3838.13 13071.4 3885.13 13077.4 3916.13 13082.4 3880.13 13088.4 3865.13 13093.4 3880.13 13099.4 3869.13 13105.4 3847.13 13110.4 3900.13 13116.4 3918.13 13121.4 3818.13 13127.4 3876.13 13133.4 3809.12 13138.4 3871.13 13144.4 3845.13 13149.4 3878.13 13155.4 3900.13 13161.4 3942.13 13166.4 3936.13 13172.4 3956.13 13178.4 3813.12 13183.4 3894.13 13189.4 3840.13 13194.4 3871.13 13200.4 3889.13 13206.4 3860.13 13211.4 3902.13 13217.4 3876.13 13222.4 3840.13 13228.4 3862.13 13234.4 3876.13 13239.4 3840.13 13245.4 3822.13 13250.4 3840.13 13256.4 3845.13 13262.4 3805.12 13267.4 3874.13 13273.4 3860.13 13278.4 3905.13 13284.4 3900.13 13290.4 3916.13 13295.4 3778.12 13301.4 3822.13 13307.4 3851.13 13312.4 3802.12 13318.4 3856.13 13323.4 3931.13 13329.4 3874.13 13335.4 3927.13 13340.4 3867.13 13346.4 3880.13 13351.4 3889.13 13357.4 3778.12 13363.4 3809.12 13368.4 3856.13 13374.4 3862.13 13379.4 3816.12 13385.4 3840.13 13391.4 3760.12 13396.4 3791.12 13402.4 3767.12 13407.4 3805.12 13413.4 3862.13 13419.4 3789.12 13424.4 3829.13 13430.4 3887.13 13436.4 3831.13 13441.4 3882.13 13447.4 3851.13 13452.4 3856.13 13458.4 3847.13 13464.4 3796.12 13469.4 3796.12 13475.4 3905.13 13480.4 3818.13 13486.4 3813.12 13492.4 3918.13 13497.4 3927.13 13503.4 3818.13 13508.4 3798.12 13514.4 3780.12 13520.4 3847.13 13525.4 3805.12 13531.4 3827.13 13536.4 3818.13 13542.4 3822.13 13548.4 3818.13 13553.4 3874.13 13559.4 3849.13 13565.4 3854.13 13570.4 3856.13 13576.4 3753.12 13581.4 3811.12 13587.4 3780.12 13593.4 3800.12 13598.4 3736.12 13604.4 3789.12 13609.4 3793.12 13615.4 3773.12 13621.4 3765.12 13626.4 3773.12 13632.4 3840.13 13637.4 3773.12 13643.4 3780.12 13649.4 3753.12 13654.4 3796.12 13660.4 3829.13 13665.4 3789.12 13671.4 3827.13 13677.4 3762.12 13682.4 3733.12 13688.4 3800.12 13694.4 3807.12 13699.4 3780.12 13705.4 3818.13 13710.4 3729.12 13716.5 3749.12 13722.5 3785.12 13727.5 3789.12 13733.5 3711.12 13738.5 3771.12 13744.5 3800.12 13750.5 3785.12 13755.5 3733.12 13761.5 3678.12 13766.5 3707.12 13772.5 3727.12 13778.5 3751.12 13783.5 3733.12 13789.5 3691.12 13794.5 3736.12 13800.5 3709.12 13806.5 3725.12 13811.5 3653.12 13817.5 3656.12 13823.5 3640.12 13828.5 3711.12 13834.5 3662.12 13839.5 3747.12 13845.5 3733.12 13851.5 3707.12 13856.5 3631.12 13862.5 3667.12 13867.5 3673.12 13873.5 3691.12 13879.5 3638.12 13884.5 3613.12 13890.5 3656.12 13895.5 3640.12 13901.5 3669.12 13907.5 3645.12 13912.5 3638.12 13918.5 3678.12 13923.5 3733.12 13929.5 3656.12 13935.5 3738.12 13940.5 3671.12 13946.5 3673.12 13952.5 3649.12 13957.5 3611.12 13963.5 3676.12 13968.5 3685.12 13974.5 3580.12 13980.5 3571.12 13985.5 3673.12 13991.5 3707.12 13996.5 3656.12 14002.5 3687.12 14008.5 3633.12 14013.5 3629.12 14019.5 3733.12 14024.5 3711.12 14030.5 3651.12 14036.5 3700.12 14041.5 3609.12 14047.5 3600.12 14052.5 3738.12 14058.5 3693.12 14064.5 3716.12 14069.5 3716.12 14075.5 3709.12 14081.5 3662.12 14086.5 3653.12 14092.5 3671.12 14097.5 3622.12 14103.5 3651.12 14109.5 3638.12 14114.5 3696.12 14120.5 3736.12 14125.5 3711.12 14131.5 3709.12 14137.5 3620.12 14142.5 3627.12 14148.5 3589.12 14153.5 3671.12 14159.5 3633.12 14165.5 3582.12 14170.5 3627.12 14176.5 3613.12 14181.5 3607.12 14187.5 3689.12 14193.5 3642.12 14198.5 3640.12 14204.5 3727.12 14210.5 3733.12 14215.5 3742.12 14221.5 3745.12 14226.5 3698.12 14232.5 3718.12 14238.5 3709.12 14243.5 3627.12 14249.5 3620.12 14254.5 3749.12 14260.5 3696.12 14266.5 3636.12 14271.5 3716.12 14277.5 3640.12 14282.5 3707.12 14288.5 3629.12 14294.5 3633.12 14299.5 3649.12 14305.5 3620.12 14310.5 3578.12 14316.5 3591.12 14322.5 3607.12 14327.5 3593.12 14333.5 3609.12 14339.5 3642.12 14344.5 3636.12 14350.5 3676.12 14355.5 3662.12 14361.5 3682.12 14367.5 3742.12 14372.5 3667.12 14378.5 3651.12 14383.5 3682.12 14389.5 3736.12 14395.5 3720.12 14400.5 3671.12 14406.5 3660.12 14411.5 3785.12 14417.5 3698.12 14423.5 3698.12 14428.5 3682.12 14434.5 3693.12 14439.5 3760.12 14445.5 3722.12 14451.5 3751.12 14456.5 3689.12 14462.5 3733.12 14468.5 3727.12 14473.5 3696.12 14479.5 3711.12 14484.5 3667.12 14490.5 3680.12 14496.5 3609.12 14501.5 3696.12 14507.5 3673.12 14512.5 3645.12 14518.5 3611.12 14524.5 3676.12 14529.5 3602.12 14535.5 3596.12 14540.5 3645.12 14546.5 3653.12 14552.5 3591.12 14557.5 3609.12 14563.5 3571.12 14568.5 3642.12 14574.5 3660.12 14580.5 3605.12 14585.5 3651.12 14591.5 3591.12 14597.5 3616.12 14602.5 3638.12 14608.5 3573.12 14613.5 3562.12 14619.5 3576.12 14625.5 3549.12 14630.5 3571.12 14636.5 3605.12 14641.5 3562.12 14647.5 3647.12 14653.5 3589.12 14658.5 3556.12 14664.5 3587.12 14669.5 3551.12 14675.5 3573.12 14681.5 3562.12 14686.5 3556.12 14692.5 3598.12 14697.5 3611.12 14703.5 3584.12 14709.5 3631.12 14714.5 3607.12 14720.5 3625.12 14726.5 3593.12 14731.5 3613.12 14737.5 3669.12 14742.5 3678.12 14748.5 3618.12 14754.5 3651.12 14759.5 3596.12 14765.5 3647.12 14770.5 3676.12 14776.5 3645.12 14782.5 3662.12 14787.5 3631.12 14793.5 3673.12 14798.5 3731.12 14804.5 3658.12 14810.5 3662.12 14815.5 3718.12 14821.5 3669.12 14826.5 3685.12 14832.5 3753.12 14838.5 3749.12 14843.5 3765.12 14849.5 3705.12 14855.5 3751.12 14860.5 3698.12 14866.5 3811.12 14871.5 3758.12 14877.5 3747.12 14883.5 3771.12 14888.5 3738.12 14894.5 3791.12 14899.5 3793.12 14905.5 3811.12 14911.5 3825.13 14916.5 3809.12 14922.5 3807.12 14927.5 3862.13 14933.5 3889.13 14939.5 3900.13 14944.5 3762.12 14950.5 3782.12 14955.5 3811.12 14961.5 3800.12 14967.5 3787.12 14972.5 3854.13 14978.5 3889.13 14984.5 3900.13 14989.5 3831.13 14995.5 3782.12 15000.5 3825.13 15006.5 3880.13 15012.5 3840.13 15017.5 3874.13 15023.5 3882.13 15028.5 3854.13 15034.5 3851.13 15040.5 3807.12 15045.5 3825.13 15051.5 3918.13 15056.5 3931.13 15062.5 3822.13 15068.5 3776.12 15073.5 3876.13 15079.5 3789.12 15084.5 3822.13 15090.5 3831.13 15096.5 3831.13 15101.5 3900.13 15107.5 3876.13 15113.5 3902.13 15118.5 3914.13 15124.5 3867.13 15129.5 3836.13 15135.5 3874.13 15141.5 3902.13 15146.5 3878.13 15152.5 3900.13 15157.5 3982.13 15163.5 3989.13 15169.5 3889.13 15174.5 3871.13 15180.5 3885.13 15185.5 3807.12 15191.5 3858.13 15197.5 3856.13 15202.5 3825.13 15208.5 3825.13 15213.5 3911.13 15219.5 3858.13 15225.5 3911.13 15230.5 3867.13 15236.5 3909.13 15242.5 3971.13 15247.5 3931.13 15253.5 4000 15258.5 3680.12 15264.5 3736.12 15270.5 3776.12 15275.5 3756.12 15281.5 3807.12 15286.5 3816.12 15292.5 3733.12 15298.5 3785.12 15303.5 3802.12 15309.5 3825.13 15314.5 3807.12 15320.5 3833.13 15326 3862.13" stroke="#4F81BD" stroke-width="10.3125" stroke-linecap="round" stroke-linejoin="round" stroke-miterlimit="10" fill="none"/></g><g clip-path="url(#clip4)"><path d="M12101 3762 12106.4 3762 12112.4 3762 12117.4 3762 12123.4 3762 12129.4 3762 12134.4 3762 12140.4 3762 12146.4 3762 12151.4 3762 12157.4 3762 12162.4 3762 12168.4 3762 12174.4 3762 12179.4 3762 12185.4 3762 12190.4 3762 12196.4 3762 12202.4 3762 12207.4 3762 12213.4 3762 12218.4 3762 12224.4 3762 12230.4 3762 12235.4 3762 12241.4 3762 12246.4 3762 12252.4 3762 12258.4 3762 12263.4 3762 12269.4 3762 12275.4 3762 12280.4 3762 12286.4 3762 12291.4 3762 12297.4 3762 12303.4 3762 12308.4 3762 12314.4 3762 12319.4 3762 12325.4 3762 12331.4 3762 12336.4 3762 12342.4 3762 12347.4 3762 12353.4 3762 12359.4 3762 12364.4 3762 12370.4 3762 12375.4 3762 12381.4 3762 12387.4 3762 12392.4 3762 12398.4 3762 12404.4 3762 12409.4 3762 12415.4 3762 12420.4 3762 12426.4 3762 12432.4 3762 12437.4 3762 12443.4 3762 12448.4 3762 12454.4 3762 12460.4 3762 12465.4 3762 12471.4 3762 12476.4 3762 12482.4 3762 12488.4 3762 12493.4 3762 12499.4 3762 12504.4 3762 12510.4 3762 12516.4 3762 12521.4 3762 12527.4 3762 12533.4 3762 12538.4 3762 12544.4 3762 12549.4 3762 12555.4 3762 12561.4 3762 12566.4 3762 12572.4 3762 12577.4 3762 12583.4 3762 12589.4 3762 12594.4 3762 12600.4 3762 12605.4 3762 12611.4 3762 12617.4 3762 12622.4 3762 12628.4 3762 12633.4 3762 12639.4 3762 12645.4 3762 12650.4 3762 12656.4 3762 12662.4 3762 12667.4 3762 12673.4 3762 12678.4 3762 12684.4 3762 12690.4 3762 12695.4 3762 12701.4 3762 12706.4 3762 12712.4 3762 12718.4 3762 12723.4 3762 12729.4 3762 12734.4 3762 12740.4 3762 12746.4 3762 12751.4 3762 12757.4 3762 12762.4 3762 12768.4 3762 12774.4 3762 12779.4 3762 12785.4 3762 12791.4 3762 12796.4 3762 12802.4 3762 12807.4 3762 12813.4 3762 12819.4 3762 12824.4 3762 12830.4 3762 12835.4 3762 12841.4 3762 12847.4 3762 12852.4 3762 12858.4 3762 12863.4 3762 12869.4 3762 12875.4 3762 12880.4 3762 12886.4 3762 12891.4 3762 12897.4 3762 12903.4 3762 12908.4 3762 12914.4 3762 12920.4 3762 12925.4 3762 12931.4 3762 12936.4 3762 12942.4 3762 12948.4 3762 12953.4 3762 12959.4 3762 12964.4 3762 12970.4 3762 12976.4 3762 12981.4 3762 12987.4 3762 12992.4 3762 12998.4 3762 13004.4 3762 13009.4 3762 13015.4 3762 13020.4 3762 13026.4 3762 13032.4 3762 13037.4 3762 13043.4 3762 13049.4 3762 13054.4 3762 13060.4 3762 13065.4 3762 13071.4 3762 13077.4 3762 13082.4 3762 13088.4 3762 13093.4 3762 13099.4 3762 13105.4 3762 13110.4 3762 13116.4 3762 13121.4 3762 13127.4 3762 13133.4 3762 13138.4 3762 13144.4 3762 13149.4 3762 13155.4 3762 13161.4 3762 13166.4 3762 13172.4 3762 13178.4 3762 13183.4 3762 13189.4 3762 13194.4 3762 13200.4 3762 13206.4 3762 13211.4 3762 13217.4 3762 13222.4 3762 13228.4 3762 13234.4 3762 13239.4 3762 13245.4 3762 13250.4 3762 13256.4 3762 13262.4 3762 13267.4 3762 13273.4 3762 13278.4 3762 13284.4 3762 13290.4 3762 13295.4 3762 13301.4 3762 13307.4 3762 13312.4 3762 13318.4 3762 13323.4 3762 13329.4 3762 13335.4 3762 13340.4 3762 13346.4 3762 13351.4 3762 13357.4 3762 13363.4 3762 13368.4 3762 13374.4 3762 13379.4 3762 13385.4 3762 13391.4 3762 13396.4 3762 13402.4 3762 13407.4 3762 13413.4 3762 13419.4 3762 13424.4 3762 13430.4 3762 13436.4 3762 13441.4 3762 13447.4 3762 13452.4 3762 13458.4 3762 13464.4 3762 13469.4 3762 13475.4 3762 13480.4 3762 13486.4 3762 13492.4 3762 13497.4 3762 13503.4 3762 13508.4 3762 13514.4 3762 13520.4 3762 13525.4 3762 13531.4 3762 13536.4 3762 13542.4 3762 13548.4 3762 13553.4 3762 13559.4 3762 13565.4 3762 13570.4 3762 13576.4 3762 13581.4 3762 13587.4 3762 13593.4 3762 13598.4 3762 13604.4 3762 13609.4 3762 13615.4 3762 13621.4 3762 13626.4 3762 13632.4 3762 13637.4 3762 13643.4 3762 13649.4 3762 13654.4 3762 13660.4 3762 13665.4 3762 13671.4 3762 13677.4 3762 13682.4 3762 13688.4 3762 13694.4 3762 13699.4 3762 13705.4 3762 13710.4 3762 13716.5 3762 13722.5 3762 13727.5 3762 13733.5 3762 13738.5 3762 13744.5 3762 13750.5 3762 13755.5 3762 13761.5 3762 13766.5 3762 13772.5 3762 13778.5 3762 13783.5 3762 13789.5 3762 13794.5 3762 13800.5 3762 13806.5 3762 13811.5 3762 13817.5 3762 13823.5 3762 13828.5 3762 13834.5 3762 13839.5 3762 13845.5 3762 13851.5 3762 13856.5 3762 13862.5 3762 13867.5 3762 13873.5 3762 13879.5 3762 13884.5 3762 13890.5 3762 13895.5 3762 13901.5 3762 13907.5 3762 13912.5 3762 13918.5 3762 13923.5 3762 13929.5 3762 13935.5 3762 13940.5 3762 13946.5 3762 13952.5 3762 13957.5 3762 13963.5 3762 13968.5 3762 13974.5 3762 13980.5 3762 13985.5 3762 13991.5 3762 13996.5 3762 14002.5 3762 14008.5 3762 14013.5 3762 14019.5 3762 14024.5 3762 14030.5 3762 14036.5 3762 14041.5 3762 14047.5 3762 14052.5 3762 14058.5 3762 14064.5 3762 14069.5 3762 14075.5 3762 14081.5 3762 14086.5 3762 14092.5 3762 14097.5 3762 14103.5 3762 14109.5 3762 14114.5 3762 14120.5 3762 14125.5 3762 14131.5 3762 14137.5 3762 14142.5 3762 14148.5 3762 14153.5 3762 14159.5 3762 14165.5 3762 14170.5 3762 14176.5 3762 14181.5 3762 14187.5 3762 14193.5 3762 14198.5 3762 14204.5 3762 14210.5 3762 14215.5 3762 14221.5 3762 14226.5 3762 14232.5 3762 14238.5 3762 14243.5 3762 14249.5 3762 14254.5 3762 14260.5 3762 14266.5 3762 14271.5 3762 14277.5 3762 14282.5 3762 14288.5 3762 14294.5 3762 14299.5 3762 14305.5 3762 14310.5 3762 14316.5 3762 14322.5 3762 14327.5 3762 14333.5 3762 14339.5 3762 14344.5 3762 14350.5 3762 14355.5 3762 14361.5 3762 14367.5 3762 14372.5 3762 14378.5 3762 14383.5 3762 14389.5 3762 14395.5 3762 14400.5 3762 14406.5 3762 14411.5 3762 14417.5 3762 14423.5 3762 14428.5 3762 14434.5 3762 14439.5 3762 14445.5 3762 14451.5 3762 14456.5 3762 14462.5 3762 14468.5 3762 14473.5 3762 14479.5 3762 14484.5 3762 14490.5 3762 14496.5 3762 14501.5 3762 14507.5 3762 14512.5 3762 14518.5 3762 14524.5 3762 14529.5 3762 14535.5 3762 14540.5 3762 14546.5 3762 14552.5 3762 14557.5 3762 14563.5 3762 14568.5 3762 14574.5 3762 14580.5 3762 14585.5 3762 14591.5 3762 14597.5 3762 14602.5 3762 14608.5 3762 14613.5 3762 14619.5 3762 14625.5 3762 14630.5 3762 14636.5 3762 14641.5 3762 14647.5 3762 14653.5 3762 14658.5 3762 14664.5 3762 14669.5 3762 14675.5 3762 14681.5 3762 14686.5 3762 14692.5 3762 14697.5 3762 14703.5 3762 14709.5 3762 14714.5 3762 14720.5 3762 14726.5 3762 14731.5 3762 14737.5 3762 14742.5 3762 14748.5 3762 14754.5 3762 14759.5 3762 14765.5 3762 14770.5 3762 14776.5 3762 14782.5 3762 14787.5 3762 14793.5 3762 14798.5 3762 14804.5 3762 14810.5 3762 14815.5 3762 14821.5 3762 14826.5 3762 14832.5 3762 14838.5 3762 14843.5 3762 14849.5 3762 14855.5 3762 14860.5 3762 14866.5 3762 14871.5 3762 14877.5 3762 14883.5 3762 14888.5 3762 14894.5 3762 14899.5 3762 14905.5 3762 14911.5 3762 14916.5 3762 14922.5 3762 14927.5 3762 14933.5 3762 14939.5 3762 14944.5 3762 14950.5 3762 14955.5 3762 14961.5 3762 14967.5 3762 14972.5 3762 14978.5 3762 14984.5 3762 14989.5 3762 14995.5 3762 15000.5 3762 15006.5 3762 15012.5 3762 15017.5 3762 15023.5 3762 15028.5 3762 15034.5 3762 15040.5 3762 15045.5 3762 15051.5 3762 15056.5 3762 15062.5 3762 15068.5 3762 15073.5 3762 15079.5 3762 15084.5 3762 15090.5 3762 15096.5 3762 15101.5 3762 15107.5 3762 15113.5 3762 15118.5 3762 15124.5 3762 15129.5 3762 15135.5 3762 15141.5 3762 15146.5 3762 15152.5 3762 15157.5 3762 15163.5 3762 15169.5 3762 15174.5 3762 15180.5 3762 15185.5 3762 15191.5 3762 15197.5 3762 15202.5 3762 15208.5 3762 15213.5 3762 15219.5 3762 15225.5 3762 15230.5 3762 15236.5 3762 15242.5 3762 15247.5 3762 15253.5 3762 15258.5 3762 15264.5 3762 15270.5 3762 15275.5 3762 15281.5 3762 15286.5 3762 15292.5 3762 15298.5 3762 15303.5 3762 15309.5 3762 15314.5 3762 15320.5 3762 15326 3762" stroke="#9BBB59" stroke-width="10.3125" stroke-linecap="round" stroke-linejoin="round" stroke-miterlimit="10" fill="none"/></g><g clip-path="url(#clip5)"><path d="M12101 4696.15 12106.4 4696.15 12112.4 4696.15 12117.4 4696.15 12123.4 4696.15 12129.4 4696.15 12134.4 4696.15 12140.4 4696.15 12146.4 4696.15 12151.4 4696.15 12157.4 4696.15 12162.4 4696.15 12168.4 4696.15 12174.4 4696.15 12179.4 4696.15 12185.4 4696.15 12190.4 4696.15 12196.4 4696.15 12202.4 4696.15 12207.4 4696.15 12213.4 4696.15 12218.4 4899.16 12224.4 4899.16 12230.4 4899.16 12235.4 4899.16 12241.4 4899.16 12246.4 4899.16 12252.4 4899.16 12258.4 4899.16 12263.4 4899.16 12269.4 4899.16 12275.4 4899.16 12280.4 4899.16 12286.4 4899.16 12291.4 4941.16 12297.4 4941.16 12303.4 4986.16 12308.4 4986.16 12314.4 4986.16 12319.4 4986.16 12325.4 4986.16 12331.4 4986.16 12336.4 4986.16 12342.4 4986.16 12347.4 4986.16 12353.4 4986.16 12359.4 5031.17 12364.4 5031.17 12370.4 5031.17 12375.4 5031.17 12381.4 5031.17 12387.4 5031.17 12392.4 5031.17 12398.4 5031.17 12404.4 5031.17 12409.4 5031.17 12415.4 5031.17 12420.4 5094.17 12426.4 5094.17 12432.4 5094.17 12437.4 5094.17 12443.4 5094.17 12448.4 5094.17 12454.4 5094.17 12460.4 5094.17 12465.4 5094.17 12471.4 5094.17 12476.4 5094.17 12482.4 5094.17 12488.4 5094.17 12493.4 5094.17 12499.4 5094.17 12504.4 5094.17 12510.4 5094.17 12516.4 5094.17 12521.4 5094.17 12527.4 5094.17 12533.4 5094.17 12538.4 5094.17 12544.4 5094.17 12549.4 5094.17 12555.4 5094.17 12561.4 5094.17 12566.4 5094.17 12572.4 5094.17 12577.4 5094.17 12583.4 5094.17 12589.4 5094.17 12594.4 5094.17 12600.4 5094.17 12605.4 5094.17 12611.4 5094.17 12617.4 5094.17 12622.4 5094.17 12628.4 5096 12633.4 5096 12639.4 5096 12645.4 5096 12650.4 5096 12656.4 5096 12662.4 5096 12667.4 5096 12673.4 5096 12678.4 5096 12684.4 5096 12690.4 5096 12695.4 5096 12701.4 5096 12706.4 5096 12712.4 5096 12718.4 5096 12723.4 5096 12729.4 5096 12734.4 5096 12740.4 5096 12746.4 5096 12751.4 5096 12757.4 5096 12762.4 5096 12768.4 5096 12774.4 5096 12779.4 5096 12785.4 5096 12791.4 5096 12796.4 5096 12802.4 5096 12807.4 5096 12813.4 5096 12819.4 5096 12824.4 5096 12830.4 5096 12835.4 5096 12841.4 5096 12847.4 5096 12852.4 5096 12858.4 5096 12863.4 5096 12869.4 5096 12875.4 5096 12880.4 5096 12886.4 5096 12891.4 5096 12897.4 5096 12903.4 5036.17 12908.4 5036.17 12914.4 5036.17 12920.4 5036.17 12925.4 5036.17 12931.4 5036.17 12936.4 5036.17 12942.4 5036.17 12948.4 5036.17 12953.4 5036.17 12959.4 5036.17 12964.4 5036.17 12970.4 5036.17 12976.4 5036.17 12981.4 5036.17 12987.4 5036.17 12992.4 5036.17 12998.4 5036.17 13004.4 4821.16 13009.4 4821.16 13015.4 4821.16 13020.4 4821.16 13026.4 4821.16 13032.4 4821.16 13037.4 4821.16 13043.4 4821.16 13049.4 4821.16 13054.4 4821.16 13060.4 4821.16 13065.4 4821.16 13071.4 4821.16 13077.4 4821.16 13082.4 4821.16 13088.4 4821.16 13093.4 4821.16 13099.4 4769.16 13105.4 4769.16 13110.4 4769.16 13116.4 4769.16 13121.4 4699.15 13127.4 4699.15 13133.4 4699.15 13138.4 4699.15 13144.4 4699.15 13149.4 4699.15 13155.4 4699.15 13161.4 4699.15 13166.4 4699.15 13172.4 4699.15 13178.4 4611.15 13183.4 4611.15 13189.4 4611.15 13194.4 4611.15 13200.4 4611.15 13206.4 4554.15 13211.4 4554.15 13217.4 4554.15 13222.4 4554.15 13228.4 4554.15 13234.4 4509.15 13239.4 4459.15 13245.4 4459.15 13250.4 4459.15 13256.4 4459.15 13262.4 4459.15 13267.4 4459.15 13273.4 4459.15 13278.4 4459.15 13284.4 4459.15 13290.4 4459.15 13295.4 4388.14 13301.4 4388.14 13307.4 4388.14 13312.4 4388.14 13318.4 4388.14 13323.4 4388.14 13329.4 4388.14 13335.4 4388.14 13340.4 4388.14 13346.4 4388.14 13351.4 4336.14 13357.4 4278.14 13363.4 4278.14 13368.4 4278.14 13374.4 4278.14 13379.4 4233.14 13385.4 4233.14 13391.4 4233.14 13396.4 4233.14 13402.4 4233.14 13407.4 4233.14 13413.4 4233.14 13419.4 4233.14 13424.4 4233.14 13430.4 4233.14 13436.4 4233.14 13441.4 4233.14 13447.4 4233.14 13452.4 4233.14 13458.4 4191.14 13464.4 4191.14 13469.4 4191.14 13475.4 4191.14 13480.4 4191.14 13486.4 4191.14 13492.4 4191.14 13497.4 4191.14 13503.4 4116.13 13508.4 4116.13 13514.4 4116.13 13520.4 4116.13 13525.4 4116.13 13531.4 4116.13 13536.4 4116.13 13542.4 4116.13 13548.4 4116.13 13553.4 4116.13 13559.4 4116.13 13565.4 4116.13 13570.4 4116.13 13576.4 4073 13581.4 4073 13587.4 4073 13593.4 4073 13598.4 4073 13604.4 4073 13609.4 4073 13615.4 4073 13621.4 4073 13626.4 4073 13632.4 4073 13637.4 4073 13643.4 4073 13649.4 4073 13654.4 4073 13660.4 4073 13665.4 4073 13671.4 4073 13677.4 4073 13682.4 4073 13688.4 4073 13694.4 4073 13699.4 4073 13705.4 4073 13710.4 4073 13716.5 4073 13722.5 4073 13727.5 4073 13733.5 4073 13738.5 4073 13744.5 4073 13750.5 4073 13755.5 4073 13761.5 4073 13766.5 4073 13772.5 4073 13778.5 4073 13783.5 4073 13789.5 4073 13794.5 4073 13800.5 4073 13806.5 4073 13811.5 4073 13817.5 4073 13823.5 4073 13828.5 4128.14 13834.5 4128.14 13839.5 4128.14 13845.5 4128.14 13851.5 4128.14 13856.5 4128.14 13862.5 4128.14 13867.5 4128.14 13873.5 4128.14 13879.5 4128.14 13884.5 4128.14 13890.5 4128.14 13895.5 4128.14 13901.5 4183.14 13907.5 4183.14 13912.5 4183.14 13918.5 4238.14 13923.5 4238.14 13929.5 4238.14 13935.5 4238.14 13940.5 4238.14 13946.5 4238.14 13952.5 4238.14 13957.5 4238.14 13963.5 4238.14 13968.5 4238.14 13974.5 4238.14 13980.5 4238.14 13985.5 4323.14 13991.5 4323.14 13996.5 4323.14 14002.5 4323.14 14008.5 4323.14 14013.5 4323.14 14019.5 4383.14 14024.5 4383.14 14030.5 4383.14 14036.5 4383.14 14041.5 4383.14 14047.5 4383.14 14052.5 4456.15 14058.5 4456.15 14064.5 4456.15 14069.5 4456.15 14075.5 4456.15 14081.5 4456.15 14086.5 4456.15 14092.5 4506.15 14097.5 4506.15 14103.5 4506.15 14109.5 4506.15 14114.5 4561.15 14120.5 4561.15 14125.5 4561.15 14131.5 4561.15 14137.5 4561.15 14142.5 4561.15 14148.5 4561.15 14153.5 4561.15 14159.5 4561.15 14165.5 4561.15 14170.5 4561.15 14176.5 4561.15 14181.5 4629.15 14187.5 4699.15 14193.5 4699.15 14198.5 4699.15 14204.5 4754.16 14210.5 4754.16 14215.5 4754.16 14221.5 4754.16 14226.5 4754.16 14232.5 4754.16 14238.5 4754.16 14243.5 4754.16 14249.5 4754.16 14254.5 4819.16 14260.5 4819.16 14266.5 4819.16 14271.5 4819.16 14277.5 4819.16 14282.5 4819.16 14288.5 4819.16 14294.5 4819.16 14299.5 4819.16 14305.5 4819.16 14310.5 4819.16 14316.5 4819.16 14322.5 4819.16 14327.5 4819.16 14333.5 4894.16 14339.5 4894.16 14344.5 4894.16 14350.5 4951.16 14355.5 4951.16 14361.5 4996.16 14367.5 4996.16 14372.5 4996.16 14378.5 4996.16 14383.5 5046.17 14389.5 5046.17 14395.5 5046.17 14400.5 5046.17 14406.5 5046.17 14411.5 5091.17 14417.5 5091.17 14423.5 5091.17 14428.5 5091.17 14434.5 5091.17 14439.5 5091.17 14445.5 5091.17 14451.5 5091.17 14456.5 5091.17 14462.5 5091.17 14468.5 5091.17 14473.5 5091.17 14479.5 5091.17 14484.5 5091.17 14490.5 5091.17 14496.5 5091.17 14501.5 5091.17 14507.5 5091.17 14512.5 5091.17 14518.5 5091.17 14524.5 5091.17 14529.5 5091.17 14535.5 5091.17 14540.5 5096 14546.5 5096 14552.5 5096 14557.5 5096 14563.5 5096 14568.5 5096 14574.5 5096 14580.5 5096 14585.5 5096 14591.5 5096 14597.5 5096 14602.5 5096 14608.5 5096 14613.5 5096 14619.5 5096 14625.5 5096 14630.5 5096 14636.5 5096 14641.5 5096 14647.5 5096 14653.5 5096 14658.5 5096 14664.5 5096 14669.5 5096 14675.5 5096 14681.5 5096 14686.5 5096 14692.5 5096 14697.5 5096 14703.5 5096 14709.5 5096 14714.5 5096 14720.5 5096 14726.5 5096 14731.5 5096 14737.5 5096 14742.5 5096 14748.5 5096 14754.5 5096 14759.5 5096 14765.5 5096 14770.5 5096 14776.5 5096 14782.5 5096 14787.5 5096 14793.5 5096 14798.5 5096 14804.5 5096 14810.5 5096 14815.5 5096 14821.5 5096 14826.5 5096 14832.5 5096 14838.5 5096 14843.5 5096 14849.5 5096 14855.5 5096 14860.5 5096 14866.5 5096 14871.5 5096 14877.5 5096 14883.5 5096 14888.5 5096 14894.5 5096 14899.5 5096 14905.5 5096 14911.5 5096 14916.5 5096 14922.5 5096 14927.5 5096 14933.5 5096 14939.5 5096 14944.5 5034.17 14950.5 5034.17 14955.5 5034.17 14961.5 5034.17 14967.5 5034.17 14972.5 5034.17 14978.5 5034.17 14984.5 5034.17 14989.5 4971.16 14995.5 4971.16 15000.5 4971.16 15006.5 4971.16 15012.5 4971.16 15017.5 4971.16 15023.5 4971.16 15028.5 4916.16 15034.5 4916.16 15040.5 4916.16 15045.5 4916.16 15051.5 4916.16 15056.5 4916.16 15062.5 4841.16 15068.5 4841.16 15073.5 4841.16 15079.5 4841.16 15084.5 4841.16 15090.5 4841.16 15096.5 4841.16 15101.5 4841.16 15107.5 4841.16 15113.5 4841.16 15118.5 4841.16 15124.5 4774.16 15129.5 4774.16 15135.5 4774.16 15141.5 4774.16 15146.5 4774.16 15152.5 4774.16 15157.5 4774.16 15163.5 4774.16 15169.5 4671.15 15174.5 4671.15 15180.5 4671.15 15185.5 4616.15 15191.5 4616.15 15197.5 4616.15 15202.5 4616.15 15208.5 4616.15 15213.5 4616.15 15219.5 4616.15 15225.5 4616.15 15230.5 4616.15 15236.5 4616.15 15242.5 4616.15 15247.5 4616.15 15253.5 4616.15 15258.5 4401.14 15264.5 4401.14 15270.5 4401.14 15275.5 4401.14 15281.5 4401.14 15286.5 4401.14 15292.5 4401.14 15298.5 4401.14 15303.5 4401.14 15309.5 4401.14 15314.5 4401.14 15320.5 4401.14 15326 4401.14" stroke="#C0504D" stroke-width="10.3125" stroke-linecap="round" stroke-linejoin="round" stroke-miterlimit="10" fill="none"/></g><g clip-path="url(#clip6)"><text fill="#595959" font-family="Calibri,Calibri_MSFontService,sans-serif" font-weight="400" font-size="78" transform="matrix(1 0 0 1 15401.3 3118)">0</text></g><g clip-path="url(#clip7)"><text fill="#595959" font-family="Calibri,Calibri_MSFontService,sans-serif" font-weight="400" font-size="78" transform="matrix(1 0 0 1 15401.3 3368)">100</text></g><g clip-path="url(#clip8)"><text fill="#595959" font-family="Calibri,Calibri_MSFontService,sans-serif" font-weight="400" font-size="78" transform="matrix(1 0 0 1 15401.3 3618)">200</text></g><g clip-path="url(#clip9)"><text fill="#595959" font-family="Calibri,Calibri_MSFontService,sans-serif" font-weight="400" font-size="78" transform="matrix(1 0 0 1 15401.3 3868)">300</text></g><g clip-path="url(#clip10)"><text fill="#595959" font-family="Calibri,Calibri_MSFontService,sans-serif" font-weight="400" font-size="78" transform="matrix(1 0 0 1 15401.3 4118)">400</text></g><g clip-path="url(#clip11)"><text fill="#595959" font-family="Calibri,Calibri_MSFontService,sans-serif" font-weight="400" font-size="78" transform="matrix(1 0 0 1 15401.3 4368)">500</text></g><g clip-path="url(#clip12)"><text fill="#595959" font-family="Calibri,Calibri_MSFontService,sans-serif" font-weight="400" font-size="78" transform="matrix(1 0 0 1 15401.3 4618)">600</text></g><g clip-path="url(#clip13)"><text fill="#595959" font-family="Calibri,Calibri_MSFontService,sans-serif" font-weight="400" font-size="78" transform="matrix(1 0 0 1 15401.3 4869)">700</text></g><g clip-path="url(#clip14)"><text fill="#595959" font-family="Calibri,Calibri_MSFontService,sans-serif" font-weight="400" font-size="78" transform="matrix(1 0 0 1 15401.3 5119)">800</text></g><g clip-path="url(#clip15)"><text fill="#595959" font-family="Calibri,Calibri_MSFontService,sans-serif" font-weight="400" font-size="78" transform="matrix(1 0 0 1 11949.8 5119)">16</text></g><g clip-path="url(#clip16)"><text fill="#595959" font-family="Calibri,Calibri_MSFontService,sans-serif" font-weight="400" font-size="78" transform="matrix(1 0 0 1 11949.8 4896)">17</text></g><g clip-path="url(#clip17)"><text fill="#595959" font-family="Calibri,Calibri_MSFontService,sans-serif" font-weight="400" font-size="78" transform="matrix(1 0 0 1 11949.8 4674)">18</text></g><g clip-path="url(#clip18)"><text fill="#595959" font-family="Calibri,Calibri_MSFontService,sans-serif" font-weight="400" font-size="78" transform="matrix(1 0 0 1 11949.8 4452)">19</text></g><g clip-path="url(#clip19)"><text fill="#595959" font-family="Calibri,Calibri_MSFontService,sans-serif" font-weight="400" font-size="78" transform="matrix(1 0 0 1 11949.8 4229)">20</text></g><g clip-path="url(#clip20)"><text fill="#595959" font-family="Calibri,Calibri_MSFontService,sans-serif" font-weight="400" font-size="78" transform="matrix(1 0 0 1 11949.8 4007)">21</text></g><g clip-path="url(#clip21)"><text fill="#595959" font-family="Calibri,Calibri_MSFontService,sans-serif" font-weight="400" font-size="78" transform="matrix(1 0 0 1 11949.8 3785)">22</text></g><g clip-path="url(#clip22)"><text fill="#595959" font-family="Calibri,Calibri_MSFontService,sans-serif" font-weight="400" font-size="78" transform="matrix(1 0 0 1 11949.8 3562)">23</text></g><g clip-path="url(#clip23)"><text fill="#595959" font-family="Calibri,Calibri_MSFontService,sans-serif" font-weight="400" font-size="78" transform="matrix(1 0 0 1 11949.8 3340)">24</text></g><g clip-path="url(#clip24)"><text fill="#595959" font-family="Calibri,Calibri_MSFontService,sans-serif" font-weight="400" font-size="78" transform="matrix(1 0 0 1 11949.8 3118)">25</text></g><g clip-path="url(#clip25)"><text fill="#595959" font-family="Calibri,Calibri_MSFontService,sans-serif" font-weight="400" font-size="78" transform="matrix(6.12323e-17 -1 1 6.12323e-17 12127.5 5285)">8:00</text></g><g clip-path="url(#clip26)"><text fill="#595959" font-family="Calibri,Calibri_MSFontService,sans-serif" font-weight="400" font-size="78" transform="matrix(6.12323e-17 -1 1 6.12323e-17 12228.4 5285)">9:30</text></g><g clip-path="url(#clip27)"><text fill="#595959" font-family="Calibri,Calibri_MSFontService,sans-serif" font-weight="400" font-size="78" transform="matrix(6.12323e-17 -1 1 6.12323e-17 12329.4 5325)">11:00</text></g><g clip-path="url(#clip28)"><text fill="#595959" font-family="Calibri,Calibri_MSFontService,sans-serif" font-weight="400" font-size="78" transform="matrix(6.12323e-17 -1 1 6.12323e-17 12430.4 5325)">12:30</text></g><g clip-path="url(#clip29)"><text fill="#595959" font-family="Calibri,Calibri_MSFontService,sans-serif" font-weight="400" font-size="78" transform="matrix(6.12323e-17 -1 1 6.12323e-17 12531.3 5325)">14:00</text></g><g clip-path="url(#clip30)"><text fill="#595959" font-family="Calibri,Calibri_MSFontService,sans-serif" font-weight="400" font-size="78" transform="matrix(6.12323e-17 -1 1 6.12323e-17 12632.3 5325)">15:30</text></g><g clip-path="url(#clip31)"><text fill="#595959" font-family="Calibri,Calibri_MSFontService,sans-serif" font-weight="400" font-size="78" transform="matrix(6.12323e-17 -1 1 6.12323e-17 12733.2 5325)">17:00</text></g><g clip-path="url(#clip32)"><text fill="#595959" font-family="Calibri,Calibri_MSFontService,sans-serif" font-weight="400" font-size="78" transform="matrix(6.12323e-17 -1 1 6.12323e-17 12834.2 5325)">18:30</text></g><g clip-path="url(#clip33)"><text fill="#595959" font-family="Calibri,Calibri_MSFontService,sans-serif" font-weight="400" font-size="78" transform="matrix(6.12323e-17 -1 1 6.12323e-17 12935.2 5325)">20:00</text></g><g clip-path="url(#clip34)"><text fill="#595959" font-family="Calibri,Calibri_MSFontService,sans-serif" font-weight="400" font-size="78" transform="matrix(6.12323e-17 -1 1 6.12323e-17 13036.1 5325)">21:30</text></g><g clip-path="url(#clip35)"><text fill="#595959" font-family="Calibri,Calibri_MSFontService,sans-serif" font-weight="400" font-size="78" transform="matrix(6.12323e-17 -1 1 6.12323e-17 13137.1 5325)">23:00</text></g><g clip-path="url(#clip36)"><text fill="#595959" font-family="Calibri,Calibri_MSFontService,sans-serif" font-weight="400" font-size="78" transform="matrix(6.12323e-17 -1 1 6.12323e-17 13238 5285)">0:30</text></g><g clip-path="url(#clip37)"><text fill="#595959" font-family="Calibri,Calibri_MSFontService,sans-serif" font-weight="400" font-size="78" transform="matrix(6.12323e-17 -1 1 6.12323e-17 13339 5285)">2:00</text></g><g clip-path="url(#clip38)"><text fill="#595959" font-family="Calibri,Calibri_MSFontService,sans-serif" font-weight="400" font-size="78" transform="matrix(6.12323e-17 -1 1 6.12323e-17 13440 5285)">3:30</text></g><g clip-path="url(#clip39)"><text fill="#595959" font-family="Calibri,Calibri_MSFontService,sans-serif" font-weight="400" font-size="78" transform="matrix(6.12323e-17 -1 1 6.12323e-17 13540.9 5285)">5:00</text></g><g clip-path="url(#clip40)"><text fill="#595959" font-family="Calibri,Calibri_MSFontService,sans-serif" font-weight="400" font-size="78" transform="matrix(6.12323e-17 -1 1 6.12323e-17 13641.9 5285)">6:30</text></g><g clip-path="url(#clip41)"><text fill="#595959" font-family="Calibri,Calibri_MSFontService,sans-serif" font-weight="400" font-size="78" transform="matrix(6.12323e-17 -1 1 6.12323e-17 13742.9 5285)">8:00</text></g><g clip-path="url(#clip42)"><text fill="#595959" font-family="Calibri,Calibri_MSFontService,sans-serif" font-weight="400" font-size="78" transform="matrix(6.12323e-17 -1 1 6.12323e-17 13843.8 5285)">9:30</text></g><g clip-path="url(#clip43)"><text fill="#595959" font-family="Calibri,Calibri_MSFontService,sans-serif" font-weight="400" font-size="78" transform="matrix(6.12323e-17 -1 1 6.12323e-17 13944.8 5325)">11:00</text></g><g clip-path="url(#clip44)"><text fill="#595959" font-family="Calibri,Calibri_MSFontService,sans-serif" font-weight="400" font-size="78" transform="matrix(6.12323e-17 -1 1 6.12323e-17 14045.7 5325)">12:30</text></g><g clip-path="url(#clip45)"><text fill="#595959" font-family="Calibri,Calibri_MSFontService,sans-serif" font-weight="400" font-size="78" transform="matrix(6.12323e-17 -1 1 6.12323e-17 14146.7 5325)">14:00</text></g><g clip-path="url(#clip46)"><text fill="#595959" font-family="Calibri,Calibri_MSFontService,sans-serif" font-weight="400" font-size="78" transform="matrix(6.12323e-17 -1 1 6.12323e-17 14247.7 5325)">15:30</text></g><g clip-path="url(#clip47)"><text fill="#595959" font-family="Calibri,Calibri_MSFontService,sans-serif" font-weight="400" font-size="78" transform="matrix(6.12323e-17 -1 1 6.12323e-17 14348.6 5325)">17:00</text></g><g clip-path="url(#clip48)"><text fill="#595959" font-family="Calibri,Calibri_MSFontService,sans-serif" font-weight="400" font-size="78" transform="matrix(6.12323e-17 -1 1 6.12323e-17 14449.6 5325)">18:30</text></g><g clip-path="url(#clip49)"><text fill="#595959" font-family="Calibri,Calibri_MSFontService,sans-serif" font-weight="400" font-size="78" transform="matrix(6.12323e-17 -1 1 6.12323e-17 14550.5 5325)">20:00</text></g><g clip-path="url(#clip50)"><text fill="#595959" font-family="Calibri,Calibri_MSFontService,sans-serif" font-weight="400" font-size="78" transform="matrix(6.12323e-17 -1 1 6.12323e-17 14651.5 5325)">21:30</text></g><g clip-path="url(#clip51)"><text fill="#595959" font-family="Calibri,Calibri_MSFontService,sans-serif" font-weight="400" font-size="78" transform="matrix(6.12323e-17 -1 1 6.12323e-17 14752.5 5325)">23:00</text></g><g clip-path="url(#clip52)"><text fill="#595959" font-family="Calibri,Calibri_MSFontService,sans-serif" font-weight="400" font-size="78" transform="matrix(6.12323e-17 -1 1 6.12323e-17 14853.4 5285)">0:30</text></g><g clip-path="url(#clip53)"><text fill="#595959" font-family="Calibri,Calibri_MSFontService,sans-serif" font-weight="400" font-size="78" transform="matrix(6.12323e-17 -1 1 6.12323e-17 14954.4 5285)">2:00</text></g><g clip-path="url(#clip54)"><text fill="#595959" font-family="Calibri,Calibri_MSFontService,sans-serif" font-weight="400" font-size="78" transform="matrix(6.12323e-17 -1 1 6.12323e-17 15055.3 5285)">3:30</text></g><g clip-path="url(#clip55)"><text fill="#595959" font-family="Calibri,Calibri_MSFontService,sans-serif" font-weight="400" font-size="78" transform="matrix(6.12323e-17 -1 1 6.12323e-17 15156.3 5285)">5:00</text></g><g clip-path="url(#clip56)"><text fill="#595959" font-family="Calibri,Calibri_MSFontService,sans-serif" font-weight="400" font-size="78" transform="matrix(6.12323e-17 -1 1 6.12323e-17 15257.3 5285)">6:30</text></g><g clip-path="url(#clip57)"><text fill="#595959" font-family="Calibri,Calibri_MSFontService,sans-serif" font-weight="400" font-size="87" transform="matrix(6.12323e-17 -1 1 6.12323e-17 15616.5 4485)">Poz</text></g><g clip-path="url(#clip58)"><text fill="#595959" font-family="Calibri,Calibri_MSFontService,sans-serif" font-weight="400" font-size="87" transform="matrix(6.12323e-17 -1 1 6.12323e-17 15616.5 4362)">ícia motora </text></g><g clip-path="url(#clip59)"><text fill="#595959" font-family="Calibri,Calibri_MSFontService,sans-serif" font-weight="400" font-size="87" transform="matrix(6.12323e-17 -1 1 6.12323e-17 15616.5 3945)">[steps]</text></g><g clip-path="url(#clip60)"><text fill="#595959" font-family="Calibri,Calibri_MSFontService,sans-serif" font-weight="400" font-size="87" transform="matrix(6.12323e-17 -1 1 6.12323e-17 11912.7 4300)">Teplota [</text></g><g clip-path="url(#clip61)"><text fill="#595959" font-family="Calibri,Calibri_MSFontService,sans-serif" font-weight="400" font-size="87" transform="matrix(6.12323e-17 -1 1 6.12323e-17 11912.7 3994)">°</text></g><g clip-path="url(#clip62)"><text fill="#595959" font-family="Calibri,Calibri_MSFontService,sans-serif" font-weight="400" font-size="87" transform="matrix(6.12323e-17 -1 1 6.12323e-17 11912.7 3965)">C</text></g><g clip-path="url(#clip63)"><text fill="#595959" font-family="Calibri,Calibri_MSFontService,sans-serif" font-weight="400" font-size="87" transform="matrix(6.12323e-17 -1 1 6.12323e-17 11912.7 3918)">]</text></g><g clip-path="url(#clip64)"><text fill="#595959" font-family="Calibri,Calibri_MSFontService,sans-serif" font-weight="400" font-size="87" transform="matrix(1 0 0 1 13548.1 5421)">Čas </text></g><g clip-path="url(#clip65)"><text fill="#595959" font-family="Calibri,Calibri_MSFontService,sans-serif" font-weight="400" font-size="87" transform="matrix(1 0 0 1 13689.9 5421)">[h:m]</text></g><g clip-path="url(#clip66)"><path d="M12914 5563 13002 5563" stroke="#4F81BD" stroke-width="10.3125" stroke-linecap="round" stroke-linejoin="round" stroke-miterlimit="10" fill="none" fill-rule="evenodd"/></g><g clip-path="url(#clip67)"><text fill="#595959" font-family="Calibri,Calibri_MSFontService,sans-serif" font-weight="400" font-size="78" transform="matrix(1 0 0 1 13011 5585)">Teplota</text></g><g clip-path="url(#clip68)"><path d="M13340 5563 13428 5563" stroke="#9BBB59" stroke-width="10.3125" stroke-linecap="round" stroke-linejoin="round" stroke-miterlimit="10" fill="none" fill-rule="evenodd"/></g><g clip-path="url(#clip69)"><text fill="#595959" font-family="Calibri,Calibri_MSFontService,sans-serif" font-weight="400" font-size="78" transform="matrix(1 0 0 1 13437 5585)">Cieľová teplota</text></g><g clip-path="url(#clip70)"><path d="M14004 5563 14092 5563" stroke="#C0504D" stroke-width="10.3125" stroke-linecap="round" stroke-linejoin="round" stroke-miterlimit="10" fill="none" fill-rule="evenodd"/></g><g clip-path="url(#clip71)"><text fill="#595959" font-family="Calibri,Calibri_MSFontService,sans-serif" font-weight="400" font-size="78" transform="matrix(1 0 0 1 14101.2 5585)">Pozícia motora</text></g><rect x="11772.5" y="3025.5" width="3925" height="2626" stroke="#D9D9D9" stroke-width="3.4375" stroke-linejoin="round" stroke-miterlimit="10" fill="none"/></g></svg>