<svg width="3927" height="2629" xmlns="http://www.w3.org/2000/svg" xmlns:xlink="http://www.w3.org/1999/xlink" xml:space="preserve" overflow="hidden"><defs><clipPath id="clip0"><rect x="6749" y="3024" width="3927" height="2629"/></clipPath><clipPath id="clip1"><rect x="6749" y="3025" width="3925" height="2626"/></clipPath><clipPath id="clip2"><rect x="6749" y="3025" width="3925" height="2626"/></clipPath><clipPath id="clip3"><rect x="7078" y="3095" width="3549" height="2004"/></clipPath><clipPath id="clip4"><rect x="7078" y="3095" width="3549" height="2004"/></clipPath><clipPath id="clip5"><rect x="6749" y="3025" width="3925" height="2626"/></clipPath><clipPath id="clip6"><rect x="6749" y="3025" width="3925" height="2626"/></clipPath><clipPath id="clip7"><rect x="6749" y="3025" width="3925" height="2626"/></clipPath><clipPath id="clip8"><rect x="6749" y="3025" width="3925" height="2626"/></clipPath><clipPath id="clip9"><rect x="6749" y="3025" width="3925" height="2626"/></clipPath><clipPath id="clip10"><rect x="6749" y="3025" width="3925" height="2626"/></clipPath><clipPath id="clip11"><rect x="6749" y="3025" width="3925" height="2626"/></clipPath><clipPath id="clip12"><rect x="6749" y="3025" width="3925" height="2626"/></clipPath><clipPath id="clip13"><rect x="6749" y="3025" width="3925" height="2626"/></clipPath><clipPath id="clip14"><rect x="6749" y="3025" width="3925" height="2626"/></clipPath><clipPath id="clip15"><rect x="6749" y="3025" width="3925" height="2626"/></clipPath><clipPath id="clip16"><rect x="6749" y="3025" width="3925" height="2626"/></clipPath><clipPath id="clip17"><rect x="6749" y="3025" width="3925" height="2626"/></clipPath><clipPath id="clip18"><rect x="6749" y="3025" width="3925" height="2626"/></clipPath><clipPath id="clip19"><rect x="6749" y="3025" width="3925" height="2626"/></clipPath><clipPath id="clip20"><rect x="6749" y="3025" width="3925" height="2626"/></clipPath><clipPath id="clip21"><rect x="6749" y="3025" width="3925" height="2626"/></clipPath><clipPath id="clip22"><rect x="6749" y="3025" width="3925" height="2626"/></clipPath><clipPath id="clip23"><rect x="6749" y="3025" width="3925" height="2626"/></clipPath><clipPath id="clip24"><rect x="6749" y="3025" width="3925" height="2626"/></clipPath><clipPath id="clip25"><rect x="6749" y="3025" width="3925" height="2626"/></clipPath><clipPath id="clip26"><rect x="6749" y="3025" width="3925" height="2626"/></clipPath><clipPath id="clip27"><rect x="6749" y="3025" width="3925" height="2626"/></clipPath><clipPath id="clip28"><rect x="6749" y="3025" width="3925" height="2626"/></clipPath><clipPath id="clip29"><rect x="6749" y="3025" width="3925" height="2626"/></clipPath><clipPath id="clip30"><rect x="6749" y="3025" width="3925" height="2626"/></clipPath><clipPath id="clip31"><rect x="6749" y="3025" width="3925" height="2626"/></clipPath><clipPath id="clip32"><rect x="6749" y="3025" width="3925" height="2626"/></clipPath><clipPath id="clip33"><rect x="6749" y="3025" width="3925" height="2626"/></clipPath><clipPath id="clip34"><rect x="6749" y="3025" width="3925" height="2626"/></clipPath><clipPath id="clip35"><rect x="6749" y="3025" width="3925" height="2626"/></clipPath><clipPath id="clip36"><rect x="6749" y="3025" width="3925" height="2626"/></clipPath><clipPath id="clip37"><rect x="6749" y="3025" width="3925" height="2626"/></clipPath><clipPath id="clip38"><rect x="6749" y="3025" width="3925" height="2626"/></clipPath><clipPath id="clip39"><rect x="6749" y="3025" width="3925" height="2626"/></clipPath><clipPath id="clip40"><rect x="6749" y="3025" width="3925" height="2626"/></clipPath><clipPath id="clip41"><rect x="6749" y="3025" width="3925" height="2626"/></clipPath><clipPath id="clip42"><rect x="6749" y="3025" width="3925" height="2626"/></clipPath><clipPath id="clip43"><rect x="6749" y="3025" width="3925" height="2626"/></clipPath><clipPath id="clip44"><rect x="6749" y="3025" width="3925" height="2626"/></clipPath><clipPath id="clip45"><rect x="6749" y="3025" width="3925" height="2626"/></clipPath><clipPath id="clip46"><rect x="6749" y="3025" width="3925" height="2626"/></clipPath><clipPath id="clip47"><rect x="6749" y="3025" width="3925" height="2626"/></clipPath><clipPath id="clip48"><rect x="6749" y="3025" width="3925" height="2626"/></clipPath><clipPath id="clip49"><rect x="6749" y="3025" width="3925" height="2626"/></clipPath><clipPath id="clip50"><rect x="6749" y="3025" width="3925" height="2626"/></clipPath><clipPath id="clip51"><rect x="6749" y="3025" width="3925" height="2626"/></clipPath><clipPath id="clip52"><rect x="6749" y="3025" width="3925" height="2626"/></clipPath><clipPath id="clip53"><rect x="6749" y="3025" width="3925" height="2626"/></clipPath><clipPath id="clip54"><rect x="6749" y="3025" width="3925" height="2626"/></clipPath><clipPath id="clip55"><rect x="6749" y="3025" width="3925" height="2626"/></clipPath><clipPath id="clip56"><rect x="6749" y="3025" width="3925" height="2626"/></clipPath><clipPath id="clip57"><rect x="6749" y="3025" width="3925" height="2626"/></clipPath><clipPath id="clip58"><rect x="6749" y="3025" width="3925" height="2626"/></clipPath><clipPath id="clip59"><rect x="6749" y="3025" width="3925" height="2626"/></clipPath><clipPath id="clip60"><rect x="6749" y="3025" width="3925" height="2626"/></clipPath></defs><g clip-path="url(#clip0)" transform="translate(-6749 -3024)"><rect x="6750" y="3025" width="3924" height="2626" fill="#FFFFFF"/><g clip-path="url(#clip1)"><path d="M7078.5 4873.66 10623.5 4873.66M7078.5 4651.65 10623.5 4651.65M7078.5 4429.65 10623.5 4429.65M7078.5 4207.64 10623.5 4207.64M7078.5 3984.63 10623.5 3984.63M7078.5 3762.62 10623.5 3762.62M7078.5 3540.62 10623.5 3540.62M7078.5 3317.61 10623.5 3317.61M7078.5 3095.5 10623.5 3095.5" stroke="#D9D9D9" stroke-width="3.4375" stroke-linejoin="round" stroke-miterlimit="10" fill="none"/></g><g clip-path="url(#clip2)"><path d="M7078.5 5096.5 10623.5 5096.5" stroke="#D9D9D9" stroke-width="3.4375" stroke-linejoin="round" stroke-miterlimit="10" fill="none" fill-rule="evenodd"/></g><g clip-path="url(#clip3)"><path d="M7078 4220.14 7084.23 4216.14 7090.23 4216.14 7097.23 4227.14 7103.23 4203.14 7109.23 4191.14 7115.23 4209.14 7121.23 4138.14 7127.23 4194.14 7133.23 4143.14 7140.23 4176.14 7146.23 4116.14 7152.23 4134.14 7158.23 4120.14 7164.23 4131.14 7170.23 4051.13 7177.24 4047.13 7183.24 4105.13 7189.24 4047.13 7195.24 4036.13 7201.24 4038.13 7207.24 3989.13 7214.24 4047.13 7220.24 3994.13 7226.24 3967.13 7232.24 3991.13 7238.24 3978.13 7244.24 3911.13 7251.24 3954.13 7257.24 3956.13 7263.24 3951.13 7269.24 3894.13 7275.24 3945.13 7281.24 3860.13 7288.24 3896.13 7294.24 3936.13 7300.24 3905.13 7306.24 3878.13 7312.24 3876.13 7318.24 3825.13 7325.24 3793.12 7331.24 3807.12 7337.24 3807.12 7343.24 3827.13 7349.24 3851.13 7355.24 3809.12 7362.24 3747.12 7368.24 3787.12 7374.24 3745.12 7380.24 3751.12 7386.24 3720.12 7392.24 3765.12 7399.24 3685.12 7405.24 3773.12 7411.24 3693.12 7417.24 3733.12 7423.24 3733.12 7429.24 3667.12 7436.24 3685.12 7442.24 3678.12 7448.24 3731.12 7454.24 3689.12 7460.24 3673.12 7466.24 3640.12 7473.25 3660.12 7479.25 3662.12 7485.25 3613.12 7491.25 3607.12 7497.25 3609.12 7503.25 3649.12 7510.25 3587.12 7516.25 3607.12 7522.25 3669.12 7528.25 3656.12 7534.25 3611.12 7540.25 3589.12 7547.25 3660.12 7553.25 3578.12 7559.25 3651.12 7565.25 3613.12 7571.25 3596.12 7577.25 3576.12 7584.25 3613.12 7590.25 3656.12 7596.25 3645.12 7602.25 3642.12 7608.25 3631.12 7614.25 3549.12 7621.25 3613.12 7627.25 3540 7633.25 3629.12 7639.25 3573.12 7645.25 3560.12 7651.25 3580.12 7658.25 3645.12 7664.25 3576.12 7670.25 3609.12 7676.25 3593.12 7682.25 3598.12 7688.25 3562.12 7695.25 3645.12 7701.25 3573.12 7707.25 3660.12 7713.25 3571.12 7719.25 3651.12 7725.25 3618.12 7732.25 3605.12 7738.25 3658.12 7744.25 3673.12 7750.25 3605.12 7756.25 3656.12 7762.25 3584.12 7769.25 3636.12 7775.25 3651.12 7781.25 3616.12 7787.26 3642.12 7793.26 3696.12 7799.26 3689.12 7806.26 3647.12 7812.26 3660.12 7818.26 3656.12 7824.26 3711.12 7830.26 3711.12 7836.26 3716.12 7843.26 3680.12 7849.26 3731.12 7855.26 3676.12 7861.26 3765.12 7867.26 3782.12 7873.26 3687.12 7880.26 3796.12 7886.26 3740.12 7892.26 3747.12 7898.26 3816.13 7904.26 3733.12 7910.26 3782.12 7917.26 3822.13 7923.26 3831.13 7929.26 3782.12 7935.26 3771.12 7941.26 3771.12 7947.26 3785.12 7954.26 3836.13 7960.26 3827.13 7966.26 3854.13 7972.26 3911.13 7978.26 3874.13 7984.26 3929.13 7991.26 3949.13 7997.26 3867.13 8003.26 3918.13 8009.26 3954.13 8015.26 3916.13 8021.26 3905.13 8028.26 3976.13 8034.26 3971.13 8040.26 3956.13 8046.26 3962.13 8052.26 4045.13 8058.26 4049.13 8065.26 4054.13 8071.26 4078.13 8077.26 4065.13 8083.27 4074.13 8089.27 4020.13 8095.27 4078.13 8102.27 4051.13 8108.27 4154.14 8114.27 4096.13 8120.27 4167.14 8126.27 4176.14 8132.27 4131.14 8139.27 4196.14 8145.27 4196.14 8151.27 4136.14 8157.27 4147.14 8163.27 4234.14 8169.27 4263.14 8176.27 4194.14 8182.27 4211.14 8188.27 4287.14 8194.27 4298.14 8200.27 4276.14 8206.27 4245.14 8213.27 4327.14 8219.27 4300.14 8225.27 4296.14 8231.27 4296.14 8237.27 4340.14 8243.27 4403.14 8250.27 4314.14 8256.27 4358.14 8262.27 4434.15 8268.27 4363.14 8274.27 4420.15 8280.27 4447.15 8287.27 4405.14 8293.27 4449.15 8299.27 4454.15 8305.27 4445.15 8311.27 4429.15 8317.27 4534.15 8324.27 4538.15 8330.27 4514.15 8336.27 4541.15 8342.27 4587.15 8348.27 4561.15 8354.27 4569.15 8361.27 4523.15 8367.27 4623.15 8373.27 4578.15 8379.27 4612.15 8385.28 4583.15 8391.28 4636.15 8398.28 4574.15 8404.28 4607.15 8410.28 4605.15 8416.28 4672.15 8422.28 4609.15 8428.28 4687.15 8435.28 4656.15 8441.28 4734.16 8447.28 4687.15 8453.28 4732.16 8459.28 4718.15 8465.28 4754.16 8472.28 4776.16 8478.28 4707.15 8484.28 4714.15 8490.28 4794.16 8496.28 4770.16 8502.28 4743.16 8509.28 4734.16 8515.28 4783.16 8521.28 4758.16 8527.28 4794.16 8533.28 4778.16 8539.28 4798.16 8546.28 4805.16 8552.28 4827.16 8558.28 4781.16 8564.28 4876.16 8570.28 4890.16 8576.28 4867.16 8583.28 4876.16 8589.28 4810.16 8595.28 4814.16 8601.28 4852.16 8607.28 4836.16 8613.28 4883.16 8620.28 4916.16 8626.28 4854.16 8632.28 4945.16 8638.28 4921.16 8644.28 4854.16 8650.28 4872.16 8657.28 4870.16 8663.28 4903.16 8669.28 4950.16 8675.28 4918.16 8681.29 4970.16 8687.29 4930.16 8694.29 4914.16 8700.29 4910.16 8706.29 4927.16 8712.29 4883.16 8718.29 4958.16 8724.29 4936.16 8731.29 4887.16 8737.29 4892.16 8743.29 4985 8749.29 4934.16 8755.29 4912.16 8761.29 4887.16 8768.29 4901.16 8774.29 4874.16 8780.29 4925.16 8786.29 4952.16 8792.29 4910.16 8798.29 4894.16 8805.29 4876.16 8811.29 4965.16 8817.29 4954.16 8823.29 4938.16 8829.29 4916.16 8835.29 4910.16 8842.29 4861.16 8848.29 4945.16 8854.29 4878.16 8860.29 4858.16 8866.29 4847.16 8872.29 4918.16 8879.29 4865.16 8885.29 4834.16 8891.29 4907.16 8897.29 4923.16 8903.29 4861.16 8909.29 4890.16 8916.29 4807.16 8922.29 4834.16 8928.29 4796.16 8934.29 4850.16 8940.29 4841.16 8946.29 4803.16 8952.29 4814.16 8959.29 4863.16 8965.29 4861.16 8971.29 4832.16 8977.29 4856.16 8983.29 4743.16 8989.29 4767.16 8996.29 4803.16 9002.29 4792.16 9008.29 4818.16 9014.3 4792.16 9020.3 4701.15 9026.3 4747.16 9033.3 4783.16 9039.3 4707.15 9045.3 4687.15 9051.3 4661.15 9057.3 4745.16 9063.3 4712.15 9070.3 4658.15 9076.3 4709.15 9082.3 4656.15 9088.3 4683.15 9094.3 4614.15 9100.3 4583.15 9107.3 4672.15 9113.3 4561.15 9119.3 4649.15 9125.3 4545.15 9131.3 4636.15 9137.3 4603.15 9144.3 4547.15 9150.3 4601.15 9156.3 4565.15 9162.3 4494.15 9168.3 4492.15 9174.3 4549.15 9181.3 4514.15 9187.3 4494.15 9193.3 4454.15 9199.3 4492.15 9205.3 4432.15 9211.3 4440.15 9218.3 4385.14 9224.3 4380.14 9230.3 4385.14 9236.3 4387.14 9242.3 4409.14 9248.3 4365.14 9255.3 4372.14 9261.3 4367.14 9267.3 4360.14 9273.3 4300.14 9279.3 4332.14 9285.3 4307.14 9292.3 4263.14 9298.3 4254.14 9304.3 4296.14 9310.3 4240.14 9316.31 4267.14 9322.31 4185.14 9329.31 4254.14 9335.31 4223.14 9341.31 4218.14 9347.31 4220.14 9353.31 4136.14 9359.31 4178.14 9366.31 4165.14 9372.31 4198.14 9378.31 4125.14 9384.31 4138.14 9390.31 4087.13 9396.31 4154.14 9403.31 4125.14 9409.31 4042.13 9415.31 4058.13 9421.31 4078.13 9427.31 4020.13 9433.31 4036.13 9440.31 4020.13 9446.31 4029.13 9452.31 4034.13 9458.31 3989.13 9464.31 3938.13 9470.31 3951.13 9477.31 3956.13 9483.31 3960.13 9489.31 3954.13 9495.31 3942.13 9501.31 3878.13 9507.31 3856.13 9514.31 3949.13 9520.31 3867.13 9526.31 3914.13 9532.31 3920.13 9538.31 3811.12 9544.31 3816.13 9551.31 3796.12 9557.31 3811.12 9563.31 3811.12 9569.31 3822.13 9575.31 3802.12 9581.31 3791.12 9588.31 3838.13 9594.31 3745.12 9600.31 3736.12 9606.31 3758.12 9612.32 3718.12 9618.32 3700.12 9625.32 3707.12 9631.32 3740.12 9637.32 3780.12 9643.32 3729.12 9649.32 3765.12 9655.32 3660.12 9662.32 3656.12 9668.32 3667.12 9674.32 3658.12 9680.32 3660.12 9686.32 3733.12 9692.32 3662.12 9699.32 3622.12 9705.32 3638.12 9711.32 3713.12 9717.32 3693.12 9723.32 3605.12 9729.32 3651.12 9736.32 3631.12 9742.32 3649.12 9748.32 3631.12 9754.32 3660.12 9760.32 3673.12 9766.32 3607.12 9773.32 3638.12 9779.32 3667.12 9785.32 3609.12 9791.32 3627.12 9797.32 3620.12 9803.32 3627.12 9810.32 3580.12 9816.32 3573.12 9822.32 3651.12 9828.32 3609.12 9834.32 3602.12 9840.32 3551.12 9847.32 3562.12 9853.32 3636.12 9859.32 3578.12 9865.32 3618.12 9871.32 3576.12 9877.32 3578.12 9884.32 3602.12 9890.32 3598.12 9896.32 3602.12 9902.32 3640.12 9908.33 3609.12 9914.33 3567.12 9921.33 3569.12 9927.33 3556.12 9933.33 3609.12 9939.33 3651.12 9945.33 3636.12 9951.33 3571.12 9958.33 3564.12 9964.33 3596.12 9970.33 3613.12 9976.33 3651.12 9982.33 3607.12 9988.33 3582.12 9995.33 3660.12 10001.3 3629.12 10007.3 3680.12 10013.3 3689.12 10019.3 3705.12 10025.3 3647.12 10032.3 3687.12 10038.3 3671.12 10044.3 3709.12 10050.3 3685.12 10056.3 3702.12 10062.3 3747.12 10069.3 3680.12 10075.3 3709.12 10081.3 3698.12 10087.3 3687.12 10093.3 3711.12 10099.3 3700.12 10106.3 3773.12 10112.3 3740.12 10118.3 3800.12 10124.3 3711.12 10130.3 3725.12 10136.3 3827.13 10143.3 3736.12 10149.3 3745.12 10155.3 3776.12 10161.3 3798.12 10167.3 3860.13 10173.3 3813.13 10180.3 3811.12 10186.3 3831.13 10192.3 3874.13 10198.3 3891.13 10204.3 3847.13 10210.3 3842.13 10217.3 3858.13 10223.3 3916.13 10229.3 3947.13 10235.3 3914.13 10241.3 3987.13 10247.3 3994.13 10254.3 3900.13 10260.3 3936.13 10266.3 3938.13 10272.3 3971.13 10278.3 4002.13 10284.3 3951.13 10291.3 4011.13 10297.3 4031.13 10303.3 4083.13 10309.3 4042.13 10315.3 4029.13 10321.3 4109.13 10328.3 4027.13 10334.3 4123.14 10340.3 4127.14 10346.3 4080.13 10352.3 4178.14 10358.3 4154.14 10365.3 4120.14 10371.3 4189.14 10377.3 4198.14 10383.3 4227.14 10389.3 4147.14 10395.3 4185.14 10402.3 4236.14 10408.3 4280.14 10414.3 4276.14 10420.3 4229.14 10426.3 4276.14 10432.3 4320.14 10439.3 4303.14 10445.3 4312.14 10451.3 4303.14 10457.3 4376.14 10463.3 4347.14 10469.3 4352.14 10476.3 4352.14 10482.3 4329.14 10488.3 4389.14 10494.3 4358.14 10500.3 4392.14 10506.3 4429.15 10513.3 4412.15 10519.3 4463.15 10525.3 4489.15 10531.3 4492.15 10537.3 4440.15 10543.3 4456.15 10550.3 4525.15 10556.3 4458.15 10562.3 4525.15 10568.3 4549.15 10574.3 4480.15 10580.3 4578.15 10587.3 4509.15 10593.3 4621.15 10599.3 4625.15 10605.3 4632.15 10611.3 4554.15 10617.3 4561.15 10624 4569.15" stroke="#4F81BD" stroke-width="10.3125" stroke-linecap="round" stroke-linejoin="round" stroke-miterlimit="10" fill="none"/></g><g clip-path="url(#clip4)"><path d="M7078 3762 7084.23 3762 7090.23 3762 7097.23 3762 7103.23 3762 7109.23 3762 7115.23 3762 7121.23 3762 7127.23 3762 7133.23 3762 7140.23 3762 7146.23 3762 7152.23 3762 7158.23 3762 7164.23 3762 7170.23 3762 7177.24 3762 7183.24 3762 7189.24 3762 7195.24 3762 7201.24 3762 7207.24 3762 7214.24 3762 7220.24 3762 7226.24 3762 7232.24 3762 7238.24 3762 7244.24 3762 7251.24 3762 7257.24 3762 7263.24 3762 7269.24 3762 7275.24 3762 7281.24 3762 7288.24 3762 7294.24 3762 7300.24 3762 7306.24 3762 7312.24 3762 7318.24 3762 7325.24 3762 7331.24 3762 7337.24 3762 7343.24 3762 7349.24 3762 7355.24 3762 7362.24 3762 7368.24 3762 7374.24 3762 7380.24 3762 7386.24 3762 7392.24 3762 7399.24 3762 7405.24 3762 7411.24 3762 7417.24 3762 7423.24 3762 7429.24 3762 7436.24 3762 7442.24 3762 7448.24 3762 7454.24 3762 7460.24 3762 7466.24 3762 7473.25 3762 7479.25 3762 7485.25 3762 7491.25 3762 7497.25 3762 7503.25 3762 7510.25 3762 7516.25 3762 7522.25 3762 7528.25 3762 7534.25 3762 7540.25 3762 7547.25 3762 7553.25 3762 7559.25 3762 7565.25 3762 7571.25 3762 7577.25 3762 7584.25 3762 7590.25 3762 7596.25 3762 7602.25 3762 7608.25 3762 7614.25 3762 7621.25 3762 7627.25 3762 7633.25 3762 7639.25 3762 7645.25 3762 7651.25 3762 7658.25 3762 7664.25 3762 7670.25 3762 7676.25 3762 7682.25 3762 7688.25 3762 7695.25 3762 7701.25 3762 7707.25 3762 7713.25 3762 7719.25 3762 7725.25 3762 7732.25 3762 7738.25 3762 7744.25 3762 7750.25 3762 7756.25 3762 7762.25 3762 7769.25 3762 7775.25 3762 7781.25 3762 7787.26 3762 7793.26 3762 7799.26 3762 7806.26 3762 7812.26 3762 7818.26 3762 7824.26 3762 7830.26 3762 7836.26 3762 7843.26 3762 7849.26 3762 7855.26 3762 7861.26 3762 7867.26 3762 7873.26 3762 7880.26 3762 7886.26 3762 7892.26 3762 7898.26 3762 7904.26 3762 7910.26 3762 7917.26 3762 7923.26 3762 7929.26 3762 7935.26 3762 7941.26 3762 7947.26 3762 7954.26 3762 7960.26 3762 7966.26 3762 7972.26 3762 7978.26 3762 7984.26 3762 7991.26 3762 7997.26 3762 8003.26 3762 8009.26 3762 8015.26 3762 8021.26 3762 8028.26 3762 8034.26 3762 8040.26 3762 8046.26 3762 8052.26 3762 8058.26 3762 8065.26 3762 8071.26 3762 8077.26 3762 8083.27 3762 8089.27 3762 8095.27 3762 8102.27 3762 8108.27 3762 8114.27 3762 8120.27 3762 8126.27 3762 8132.27 3762 8139.27 3762 8145.27 3762 8151.27 3762 8157.27 3762 8163.27 3762 8169.27 3762 8176.27 3762 8182.27 3762 8188.27 3762 8194.27 3762 8200.27 3762 8206.27 3762 8213.27 3762 8219.27 3762 8225.27 3762 8231.27 3762 8237.27 3762 8243.27 3762 8250.27 3762 8256.27 3762 8262.27 3762 8268.27 3762 8274.27 3762 8280.27 3762 8287.27 3762 8293.27 3762 8299.27 3762 8305.27 3762 8311.27 3762 8317.27 3762 8324.27 3762 8330.27 3762 8336.27 3762 8342.27 3762 8348.27 3762 8354.27 3762 8361.27 3762 8367.27 3762 8373.27 3762 8379.27 3762 8385.28 3762 8391.28 3762 8398.28 3762 8404.28 3762 8410.28 3762 8416.28 3762 8422.28 3762 8428.28 3762 8435.28 3762 8441.28 3762 8447.28 3762 8453.28 3762 8459.28 3762 8465.28 3762 8472.28 3762 8478.28 3762 8484.28 3762 8490.28 3762 8496.28 3762 8502.28 3762 8509.28 3762 8515.28 3762 8521.28 3762 8527.28 3762 8533.28 3762 8539.28 3762 8546.28 3762 8552.28 3762 8558.28 3762 8564.28 3762 8570.28 3762 8576.28 3762 8583.28 3762 8589.28 3762 8595.28 3762 8601.28 3762 8607.28 3762 8613.28 3762 8620.28 3762 8626.28 3762 8632.28 3762 8638.28 3762 8644.28 3762 8650.28 3762 8657.28 3762 8663.28 3762 8669.28 3762 8675.28 3762 8681.29 3762 8687.29 3762 8694.29 3762 8700.29 3762 8706.29 3762 8712.29 3762 8718.29 3762 8724.29 3762 8731.29 3762 8737.29 3762 8743.29 3762 8749.29 3762 8755.29 3762 8761.29 3762 8768.29 3762 8774.29 3762 8780.29 3762 8786.29 3762 8792.29 3762 8798.29 3762 8805.29 3762 8811.29 3762 8817.29 3762 8823.29 3762 8829.29 3762 8835.29 3762 8842.29 3762 8848.29 3762 8854.29 3762 8860.29 3762 8866.29 3762 8872.29 3762 8879.29 3762 8885.29 3762 8891.29 3762 8897.29 3762 8903.29 3762 8909.29 3762 8916.29 3762 8922.29 3762 8928.29 3762 8934.29 3762 8940.29 3762 8946.29 3762 8952.29 3762 8959.29 3762 8965.29 3762 8971.29 3762 8977.29 3762 8983.29 3762 8989.29 3762 8996.29 3762 9002.29 3762 9008.29 3762 9014.3 3762 9020.3 3762 9026.3 3762 9033.3 3762 9039.3 3762 9045.3 3762 9051.3 3762 9057.3 3762 9063.3 3762 9070.3 3762 9076.3 3762 9082.3 3762 9088.3 3762 9094.3 3762 9100.3 3762 9107.3 3762 9113.3 3762 9119.3 3762 9125.3 3762 9131.3 3762 9137.3 3762 9144.3 3762 9150.3 3762 9156.3 3762 9162.3 3762 9168.3 3762 9174.3 3762 9181.3 3762 9187.3 3762 9193.3 3762 9199.3 3762 9205.3 3762 9211.3 3762 9218.3 3762 9224.3 3762 9230.3 3762 9236.3 3762 9242.3 3762 9248.3 3762 9255.3 3762 9261.3 3762 9267.3 3762 9273.3 3762 9279.3 3762 9285.3 3762 9292.3 3762 9298.3 3762 9304.3 3762 9310.3 3762 9316.31 3762 9322.31 3762 9329.31 3762 9335.31 3762 9341.31 3762 9347.31 3762 9353.31 3762 9359.31 3762 9366.31 3762 9372.31 3762 9378.31 3762 9384.31 3762 9390.31 3762 9396.31 3762 9403.31 3762 9409.31 3762 9415.31 3762 9421.31 3762 9427.31 3762 9433.31 3762 9440.31 3762 9446.31 3762 9452.31 3762 9458.31 3762 9464.31 3762 9470.31 3762 9477.31 3762 9483.31 3762 9489.31 3762 9495.31 3762 9501.31 3762 9507.31 3762 9514.31 3762 9520.31 3762 9526.31 3762 9532.31 3762 9538.31 3762 9544.31 3762 9551.31 3762 9557.31 3762 9563.31 3762 9569.31 3762 9575.31 3762 9581.31 3762 9588.31 3762 9594.31 3762 9600.31 3762 9606.31 3762 9612.32 3762 9618.32 3762 9625.32 3762 9631.32 3762 9637.32 3762 9643.32 3762 9649.32 3762 9655.32 3762 9662.32 3762 9668.32 3762 9674.32 3762 9680.32 3762 9686.32 3762 9692.32 3762 9699.32 3762 9705.32 3762 9711.32 3762 9717.32 3762 9723.32 3762 9729.32 3762 9736.32 3762 9742.32 3762 9748.32 3762 9754.32 3762 9760.32 3762 9766.32 3762 9773.32 3762 9779.32 3762 9785.32 3762 9791.32 3762 9797.32 3762 9803.32 3762 9810.32 3762 9816.32 3762 9822.32 3762 9828.32 3762 9834.32 3762 9840.32 3762 9847.32 3762 9853.32 3762 9859.32 3762 9865.32 3762 9871.32 3762 9877.32 3762 9884.32 3762 9890.32 3762 9896.32 3762 9902.32 3762 9908.33 3762 9914.33 3762 9921.33 3762 9927.33 3762 9933.33 3762 9939.33 3762 9945.33 3762 9951.33 3762 9958.33 3762 9964.33 3762 9970.33 3762 9976.33 3762 9982.33 3762 9988.33 3762 9995.33 3762 10001.3 3762 10007.3 3762 10013.3 3762 10019.3 3762 10025.3 3762 10032.3 3762 10038.3 3762 10044.3 3762 10050.3 3762 10056.3 3762 10062.3 3762 10069.3 3762 10075.3 3762 10081.3 3762 10087.3 3762 10093.3 3762 10099.3 3762 10106.3 3762 10112.3 3762 10118.3 3762 10124.3 3762 10130.3 3762 10136.3 3762 10143.3 3762 10149.3 3762 10155.3 3762 10161.3 3762 10167.3 3762 10173.3 3762 10180.3 3762 10186.3 3762 10192.3 3762 10198.3 3762 10204.3 3762 10210.3 3762 10217.3 3762 10223.3 3762 10229.3 3762 10235.3 3762 10241.3 3762 10247.3 3762 10254.3 3762 10260.3 3762 10266.3 3762 10272.3 3762 10278.3 3762 10284.3 3762 10291.3 3762 10297.3 3762 10303.3 3762 10309.3 3762 10315.3 3762 10321.3 3762 10328.3 3762 10334.3 3762 10340.3 3762 10346.3 3762 10352.3 3762 10358.3 3762 10365.3 3762 10371.3 3762 10377.3 3762 10383.3 3762 10389.3 3762 10395.3 3762 10402.3 3762 10408.3 3762 10414.3 3762 10420.3 3762 10426.3 3762 10432.3 3762 10439.3 3762 10445.3 3762 10451.3 3762 10457.3 3762 10463.3 3762 10469.3 3762 10476.3 3762 10482.3 3762 10488.3 3762 10494.3 3762 10500.3 3762 10506.3 3762 10513.3 3762 10519.3 3762 10525.3 3762 10531.3 3762 10537.3 3762 10543.3 3762 10550.3 3762 10556.3 3762 10562.3 3762 10568.3 3762 10574.3 3762 10580.3 3762 10587.3 3762 10593.3 3762 10599.3 3762 10605.3 3762 10611.3 3762 10617.3 3762 10624 3762" stroke="#9BBB59" stroke-width="10.3125" stroke-linecap="round" stroke-linejoin="round" stroke-miterlimit="10" fill="none"/></g><g clip-path="url(#clip5)"><text fill="#595959" font-family="Calibri,Calibri_MSFontService,sans-serif" font-weight="400" font-size="78" transform="matrix(1 0 0 1 6926.98 5119)">16</text></g><g clip-path="url(#clip6)"><text fill="#595959" font-family="Calibri,Calibri_MSFontService,sans-serif" font-weight="400" font-size="78" transform="matrix(1 0 0 1 6926.98 4896)">17</text></g><g clip-path="url(#clip7)"><text fill="#595959" font-family="Calibri,Calibri_MSFontService,sans-serif" font-weight="400" font-size="78" transform="matrix(1 0 0 1 6926.98 4674)">18</text></g><g clip-path="url(#clip8)"><text fill="#595959" font-family="Calibri,Calibri_MSFontService,sans-serif" font-weight="400" font-size="78" transform="matrix(1 0 0 1 6926.98 4452)">19</text></g><g clip-path="url(#clip9)"><text fill="#595959" font-family="Calibri,Calibri_MSFontService,sans-serif" font-weight="400" font-size="78" transform="matrix(1 0 0 1 6926.98 4229)">20</text></g><g clip-path="url(#clip10)"><text fill="#595959" font-family="Calibri,Calibri_MSFontService,sans-serif" font-weight="400" font-size="78" transform="matrix(1 0 0 1 6926.98 4007)">21</text></g><g clip-path="url(#clip11)"><text fill="#595959" font-family="Calibri,Calibri_MSFontService,sans-serif" font-weight="400" font-size="78" transform="matrix(1 0 0 1 6926.98 3785)">22</text></g><g clip-path="url(#clip12)"><text fill="#595959" font-family="Calibri,Calibri_MSFontService,sans-serif" font-weight="400" font-size="78" transform="matrix(1 0 0 1 6926.98 3562)">23</text></g><g clip-path="url(#clip13)"><text fill="#595959" font-family="Calibri,Calibri_MSFontService,sans-serif" font-weight="400" font-size="78" transform="matrix(1 0 0 1 6926.98 3340)">24</text></g><g clip-path="url(#clip14)"><text fill="#595959" font-family="Calibri,Calibri_MSFontService,sans-serif" font-weight="400" font-size="78" transform="matrix(1 0 0 1 6926.98 3118)">25</text></g><g clip-path="url(#clip15)"><text fill="#595959" font-family="Calibri,Calibri_MSFontService,sans-serif" font-weight="400" font-size="78" transform="matrix(6.12323e-17 -1 1 6.12323e-17 7104.68 5285)">8:00</text></g><g clip-path="url(#clip16)"><text fill="#595959" font-family="Calibri,Calibri_MSFontService,sans-serif" font-weight="400" font-size="78" transform="matrix(6.12323e-17 -1 1 6.12323e-17 7203.34 5285)">9:20</text></g><g clip-path="url(#clip17)"><text fill="#595959" font-family="Calibri,Calibri_MSFontService,sans-serif" font-weight="400" font-size="78" transform="matrix(6.12323e-17 -1 1 6.12323e-17 7302 5325)">10:40</text></g><g clip-path="url(#clip18)"><text fill="#595959" font-family="Calibri,Calibri_MSFontService,sans-serif" font-weight="400" font-size="78" transform="matrix(6.12323e-17 -1 1 6.12323e-17 7400.67 5325)">12:00</text></g><g clip-path="url(#clip19)"><text fill="#595959" font-family="Calibri,Calibri_MSFontService,sans-serif" font-weight="400" font-size="78" transform="matrix(6.12323e-17 -1 1 6.12323e-17 7499.33 5325)">13:20</text></g><g clip-path="url(#clip20)"><text fill="#595959" font-family="Calibri,Calibri_MSFontService,sans-serif" font-weight="400" font-size="78" transform="matrix(6.12323e-17 -1 1 6.12323e-17 7597.99 5325)">14:40</text></g><g clip-path="url(#clip21)"><text fill="#595959" font-family="Calibri,Calibri_MSFontService,sans-serif" font-weight="400" font-size="78" transform="matrix(6.12323e-17 -1 1 6.12323e-17 7696.65 5325)">16:00</text></g><g clip-path="url(#clip22)"><text fill="#595959" font-family="Calibri,Calibri_MSFontService,sans-serif" font-weight="400" font-size="78" transform="matrix(6.12323e-17 -1 1 6.12323e-17 7795.31 5325)">17:20</text></g><g clip-path="url(#clip23)"><text fill="#595959" font-family="Calibri,Calibri_MSFontService,sans-serif" font-weight="400" font-size="78" transform="matrix(6.12323e-17 -1 1 6.12323e-17 7893.97 5325)">18:40</text></g><g clip-path="url(#clip24)"><text fill="#595959" font-family="Calibri,Calibri_MSFontService,sans-serif" font-weight="400" font-size="78" transform="matrix(6.12323e-17 -1 1 6.12323e-17 7992.63 5325)">20:00</text></g><g clip-path="url(#clip25)"><text fill="#595959" font-family="Calibri,Calibri_MSFontService,sans-serif" font-weight="400" font-size="78" transform="matrix(6.12323e-17 -1 1 6.12323e-17 8091.29 5325)">21:20</text></g><g clip-path="url(#clip26)"><text fill="#595959" font-family="Calibri,Calibri_MSFontService,sans-serif" font-weight="400" font-size="78" transform="matrix(6.12323e-17 -1 1 6.12323e-17 8189.95 5325)">22:40</text></g><g clip-path="url(#clip27)"><text fill="#595959" font-family="Calibri,Calibri_MSFontService,sans-serif" font-weight="400" font-size="78" transform="matrix(6.12323e-17 -1 1 6.12323e-17 8288.61 5285)">0:00</text></g><g clip-path="url(#clip28)"><text fill="#595959" font-family="Calibri,Calibri_MSFontService,sans-serif" font-weight="400" font-size="78" transform="matrix(6.12323e-17 -1 1 6.12323e-17 8387.27 5285)">1:20</text></g><g clip-path="url(#clip29)"><text fill="#595959" font-family="Calibri,Calibri_MSFontService,sans-serif" font-weight="400" font-size="78" transform="matrix(6.12323e-17 -1 1 6.12323e-17 8485.93 5285)">2:40</text></g><g clip-path="url(#clip30)"><text fill="#595959" font-family="Calibri,Calibri_MSFontService,sans-serif" font-weight="400" font-size="78" transform="matrix(6.12323e-17 -1 1 6.12323e-17 8584.59 5285)">4:00</text></g><g clip-path="url(#clip31)"><text fill="#595959" font-family="Calibri,Calibri_MSFontService,sans-serif" font-weight="400" font-size="78" transform="matrix(6.12323e-17 -1 1 6.12323e-17 8683.26 5285)">5:20</text></g><g clip-path="url(#clip32)"><text fill="#595959" font-family="Calibri,Calibri_MSFontService,sans-serif" font-weight="400" font-size="78" transform="matrix(6.12323e-17 -1 1 6.12323e-17 8781.92 5285)">6:40</text></g><g clip-path="url(#clip33)"><text fill="#595959" font-family="Calibri,Calibri_MSFontService,sans-serif" font-weight="400" font-size="78" transform="matrix(6.12323e-17 -1 1 6.12323e-17 8880.58 5285)">8:00</text></g><g clip-path="url(#clip34)"><text fill="#595959" font-family="Calibri,Calibri_MSFontService,sans-serif" font-weight="400" font-size="78" transform="matrix(6.12323e-17 -1 1 6.12323e-17 8979.24 5285)">9:20</text></g><g clip-path="url(#clip35)"><text fill="#595959" font-family="Calibri,Calibri_MSFontService,sans-serif" font-weight="400" font-size="78" transform="matrix(6.12323e-17 -1 1 6.12323e-17 9077.9 5325)">10:40</text></g><g clip-path="url(#clip36)"><text fill="#595959" font-family="Calibri,Calibri_MSFontService,sans-serif" font-weight="400" font-size="78" transform="matrix(6.12323e-17 -1 1 6.12323e-17 9176.56 5325)">12:00</text></g><g clip-path="url(#clip37)"><text fill="#595959" font-family="Calibri,Calibri_MSFontService,sans-serif" font-weight="400" font-size="78" transform="matrix(6.12323e-17 -1 1 6.12323e-17 9275.22 5325)">13:20</text></g><g clip-path="url(#clip38)"><text fill="#595959" font-family="Calibri,Calibri_MSFontService,sans-serif" font-weight="400" font-size="78" transform="matrix(6.12323e-17 -1 1 6.12323e-17 9373.88 5325)">14:40</text></g><g clip-path="url(#clip39)"><text fill="#595959" font-family="Calibri,Calibri_MSFontService,sans-serif" font-weight="400" font-size="78" transform="matrix(6.12323e-17 -1 1 6.12323e-17 9472.54 5325)">16:00</text></g><g clip-path="url(#clip40)"><text fill="#595959" font-family="Calibri,Calibri_MSFontService,sans-serif" font-weight="400" font-size="78" transform="matrix(6.12323e-17 -1 1 6.12323e-17 9571.2 5325)">17:20</text></g><g clip-path="url(#clip41)"><text fill="#595959" font-family="Calibri,Calibri_MSFontService,sans-serif" font-weight="400" font-size="78" transform="matrix(6.12323e-17 -1 1 6.12323e-17 9669.86 5325)">18:40</text></g><g clip-path="url(#clip42)"><text fill="#595959" font-family="Calibri,Calibri_MSFontService,sans-serif" font-weight="400" font-size="78" transform="matrix(6.12323e-17 -1 1 6.12323e-17 9768.52 5325)">20:00</text></g><g clip-path="url(#clip43)"><text fill="#595959" font-family="Calibri,Calibri_MSFontService,sans-serif" font-weight="400" font-size="78" transform="matrix(6.12323e-17 -1 1 6.12323e-17 9867.19 5325)">21:20</text></g><g clip-path="url(#clip44)"><text fill="#595959" font-family="Calibri,Calibri_MSFontService,sans-serif" font-weight="400" font-size="78" transform="matrix(6.12323e-17 -1 1 6.12323e-17 9965.85 5325)">22:40</text></g><g clip-path="url(#clip45)"><text fill="#595959" font-family="Calibri,Calibri_MSFontService,sans-serif" font-weight="400" font-size="78" transform="matrix(6.12323e-17 -1 1 6.12323e-17 10064.5 5285)">0:00</text></g><g clip-path="url(#clip46)"><text fill="#595959" font-family="Calibri,Calibri_MSFontService,sans-serif" font-weight="400" font-size="78" transform="matrix(6.12323e-17 -1 1 6.12323e-17 10163.2 5285)">1:20</text></g><g clip-path="url(#clip47)"><text fill="#595959" font-family="Calibri,Calibri_MSFontService,sans-serif" font-weight="400" font-size="78" transform="matrix(6.12323e-17 -1 1 6.12323e-17 10261.8 5285)">2:40</text></g><g clip-path="url(#clip48)"><text fill="#595959" font-family="Calibri,Calibri_MSFontService,sans-serif" font-weight="400" font-size="78" transform="matrix(6.12323e-17 -1 1 6.12323e-17 10360.5 5285)">4:00</text></g><g clip-path="url(#clip49)"><text fill="#595959" font-family="Calibri,Calibri_MSFontService,sans-serif" font-weight="400" font-size="78" transform="matrix(6.12323e-17 -1 1 6.12323e-17 10459.2 5285)">5:20</text></g><g clip-path="url(#clip50)"><text fill="#595959" font-family="Calibri,Calibri_MSFontService,sans-serif" font-weight="400" font-size="78" transform="matrix(6.12323e-17 -1 1 6.12323e-17 10557.8 5285)">6:40</text></g><g clip-path="url(#clip51)"><text fill="#595959" font-family="Calibri,Calibri_MSFontService,sans-serif" font-weight="400" font-size="87" transform="matrix(6.12323e-17 -1 1 6.12323e-17 6889.93 4300)">Teplota [</text></g><g clip-path="url(#clip52)"><text fill="#595959" font-family="Calibri,Calibri_MSFontService,sans-serif" font-weight="400" font-size="87" transform="matrix(6.12323e-17 -1 1 6.12323e-17 6889.93 3994)">°</text></g><g clip-path="url(#clip53)"><text fill="#595959" font-family="Calibri,Calibri_MSFontService,sans-serif" font-weight="400" font-size="87" transform="matrix(6.12323e-17 -1 1 6.12323e-17 6889.93 3965)">C</text></g><g clip-path="url(#clip54)"><text fill="#595959" font-family="Calibri,Calibri_MSFontService,sans-serif" font-weight="400" font-size="87" transform="matrix(6.12323e-17 -1 1 6.12323e-17 6889.93 3918)">]</text></g><g clip-path="url(#clip55)"><text fill="#595959" font-family="Calibri,Calibri_MSFontService,sans-serif" font-weight="400" font-size="87" transform="matrix(1 0 0 1 8684.1 5421)">Čas </text></g><g clip-path="url(#clip56)"><text fill="#595959" font-family="Calibri,Calibri_MSFontService,sans-serif" font-weight="400" font-size="87" transform="matrix(1 0 0 1 8825.98 5421)">[h:m]</text></g><g clip-path="url(#clip57)"><path d="M8226 5563 8314 5563" stroke="#4F81BD" stroke-width="10.3125" stroke-linecap="round" stroke-linejoin="round" stroke-miterlimit="10" fill="none" fill-rule="evenodd"/></g><g clip-path="url(#clip58)"><text fill="#595959" font-family="Calibri,Calibri_MSFontService,sans-serif" font-weight="400" font-size="78" transform="matrix(1 0 0 1 8323.27 5585)">Teplota</text></g><g clip-path="url(#clip59)"><path d="M8639 5563 8727 5563" stroke="#9BBB59" stroke-width="10.3125" stroke-linecap="round" stroke-linejoin="round" stroke-miterlimit="10" fill="none" fill-rule="evenodd"/></g><g clip-path="url(#clip60)"><text fill="#595959" font-family="Calibri,Calibri_MSFontService,sans-serif" font-weight="400" font-size="78" transform="matrix(1 0 0 1 8735.89 5585)">Cieľová teplota</text></g><rect x="6750.5" y="3025.5" width="3924" height="2626" stroke="#D9D9D9" stroke-width="3.4375" stroke-linejoin="round" stroke-miterlimit="10" fill="none"/></g></svg>