<svg width="1969" height="1292" xmlns="http://www.w3.org/2000/svg" xmlns:xlink="http://www.w3.org/1999/xlink" xml:space="preserve" overflow="hidden"><defs><clipPath id="clip0"><rect x="2911" y="17541" width="1969" height="1292"/></clipPath><clipPath id="clip1"><rect x="2911" y="17541" width="1966" height="1289"/></clipPath><clipPath id="clip2"><rect x="2911" y="17541" width="1966" height="1289"/></clipPath><clipPath id="clip3"><rect x="3211" y="17595" width="1408" height="862"/></clipPath><clipPath id="clip4"><rect x="3211" y="17595" width="1408" height="862"/></clipPath><clipPath id="clip5"><rect x="3211" y="17595" width="1408" height="862"/></clipPath><clipPath id="clip6"><rect x="2911" y="17541" width="1966" height="1289"/></clipPath><clipPath id="clip7"><rect x="2911" y="17541" width="1966" height="1289"/></clipPath><clipPath id="clip8"><rect x="2911" y="17541" width="1966" height="1289"/></clipPath><clipPath id="clip9"><rect x="2911" y="17541" width="1966" height="1289"/></clipPath><clipPath id="clip10"><rect x="2911" y="17541" width="1966" height="1289"/></clipPath><clipPath id="clip11"><rect x="2911" y="17541" width="1966" height="1289"/></clipPath><clipPath id="clip12"><rect x="2911" y="17541" width="1966" height="1289"/></clipPath><clipPath id="clip13"><rect x="2911" y="17541" width="1966" height="1289"/></clipPath><clipPath id="clip14"><rect x="2911" y="17541" width="1966" height="1289"/></clipPath><clipPath id="clip15"><rect x="2911" y="17541" width="1966" height="1289"/></clipPath><clipPath id="clip16"><rect x="2911" y="17541" width="1966" height="1289"/></clipPath><clipPath id="clip17"><rect x="2911" y="17541" width="1966" height="1289"/></clipPath><clipPath id="clip18"><rect x="2911" y="17541" width="1966" height="1289"/></clipPath><clipPath id="clip19"><rect x="2911" y="17541" width="1966" height="1289"/></clipPath><clipPath id="clip20"><rect x="2911" y="17541" width="1966" height="1289"/></clipPath><clipPath id="clip21"><rect x="2911" y="17541" width="1966" height="1289"/></clipPath><clipPath id="clip22"><rect x="2911" y="17541" width="1966" height="1289"/></clipPath><clipPath id="clip23"><rect x="2911" y="17541" width="1966" height="1289"/></clipPath><clipPath id="clip24"><rect x="2911" y="17541" width="1966" height="1289"/></clipPath><clipPath id="clip25"><rect x="2911" y="17541" width="1966" height="1289"/></clipPath><clipPath id="clip26"><rect x="2911" y="17541" width="1966" height="1289"/></clipPath><clipPath id="clip27"><rect x="2911" y="17541" width="1966" height="1289"/></clipPath><clipPath id="clip28"><rect x="2911" y="17541" width="1966" height="1289"/></clipPath><clipPath id="clip29"><rect x="2911" y="17541" width="1966" height="1289"/></clipPath><clipPath id="clip30"><rect x="2911" y="17541" width="1966" height="1289"/></clipPath><clipPath id="clip31"><rect x="2911" y="17541" width="1966" height="1289"/></clipPath><clipPath id="clip32"><rect x="2911" y="17541" width="1966" height="1289"/></clipPath><clipPath id="clip33"><rect x="2911" y="17541" width="1966" height="1289"/></clipPath><clipPath id="clip34"><rect x="2911" y="17541" width="1966" height="1289"/></clipPath><clipPath id="clip35"><rect x="2911" y="17541" width="1966" height="1289"/></clipPath><clipPath id="clip36"><rect x="2911" y="17541" width="1966" height="1289"/></clipPath><clipPath id="clip37"><rect x="2911" y="17541" width="1966" height="1289"/></clipPath><clipPath id="clip38"><rect x="2911" y="17541" width="1966" height="1289"/></clipPath><clipPath id="clip39"><rect x="2911" y="17541" width="1966" height="1289"/></clipPath><clipPath id="clip40"><rect x="2911" y="17541" width="1966" height="1289"/></clipPath><clipPath id="clip41"><rect x="2911" y="17541" width="1966" height="1289"/></clipPath><clipPath id="clip42"><rect x="2911" y="17541" width="1966" height="1289"/></clipPath><clipPath id="clip43"><rect x="2911" y="17541" width="1966" height="1289"/></clipPath><clipPath id="clip44"><rect x="2911" y="17541" width="1966" height="1289"/></clipPath><clipPath id="clip45"><rect x="2911" y="17541" width="1966" height="1289"/></clipPath><clipPath id="clip46"><rect x="2911" y="17541" width="1966" height="1289"/></clipPath><clipPath id="clip47"><rect x="2911" y="17541" width="1966" height="1289"/></clipPath><clipPath id="clip48"><rect x="2911" y="17541" width="1966" height="1289"/></clipPath><clipPath id="clip49"><rect x="2911" y="17541" width="1966" height="1289"/></clipPath><clipPath id="clip50"><rect x="2911" y="17541" width="1966" height="1289"/></clipPath><clipPath id="clip51"><rect x="2911" y="17541" width="1966" height="1289"/></clipPath><clipPath id="clip52"><rect x="2911" y="17541" width="1966" height="1289"/></clipPath><clipPath id="clip53"><rect x="2911" y="17541" width="1966" height="1289"/></clipPath><clipPath id="clip54"><rect x="2911" y="17541" width="1966" height="1289"/></clipPath><clipPath id="clip55"><rect x="2911" y="17541" width="1966" height="1289"/></clipPath><clipPath id="clip56"><rect x="2911" y="17541" width="1966" height="1289"/></clipPath><clipPath id="clip57"><rect x="2911" y="17541" width="1966" height="1289"/></clipPath><clipPath id="clip58"><rect x="2911" y="17541" width="1966" height="1289"/></clipPath><clipPath id="clip59"><rect x="2911" y="17541" width="1966" height="1289"/></clipPath><clipPath id="clip60"><rect x="2911" y="17541" width="1966" height="1289"/></clipPath><clipPath id="clip61"><rect x="2911" y="17541" width="1966" height="1289"/></clipPath><clipPath id="clip62"><rect x="2911" y="17541" width="1966" height="1289"/></clipPath><clipPath id="clip63"><rect x="2911" y="17541" width="1966" height="1289"/></clipPath></defs><g clip-path="url(#clip0)" transform="translate(-2911 -17541)"><rect x="2912" y="17542" width="1966" height="1289" fill="#FFFFFF"/><g clip-path="url(#clip1)"><path d="M3211.5 18368.1 4616.5 18368.1M3211.5 18282.1 4616.5 18282.1M3211.5 18197.1 4616.5 18197.1M3211.5 18111.1 4616.5 18111.1M3211.5 18025.1 4616.5 18025.1M3211.5 17939.1 4616.5 17939.1M3211.5 17853.1 4616.5 17853.1M3211.5 17767.1 4616.5 17767.1M3211.5 17681.1 4616.5 17681.1M3211.5 17595.5 4616.5 17595.5" stroke="#D9D9D9" stroke-width="3.4375" stroke-linejoin="round" stroke-miterlimit="10" fill="none"/></g><g clip-path="url(#clip2)"><path d="M3211.5 18454.5 4616.5 18454.5" stroke="#D9D9D9" stroke-width="3.4375" stroke-linejoin="round" stroke-miterlimit="10" fill="none" fill-rule="evenodd"/></g><g clip-path="url(#clip3)"><path d="M3211 18035 3225.11 18039.6 3239.11 18039.6 3252.11 18042.6 3266.11 18043.6 3280.11 18043.6 3294.11 18044.6 3307.11 18046.6 3321.11 18048.6 3335.11 18054.6 3348.11 18054.6 3362.11 18058.6 3376.11 18064.6 3390.11 18070.6 3403.11 18071.6 3417.11 18071.6 3431.11 18076.6 3444.11 18078.6 3458.11 18080.6 3472.11 18081.6 3485.11 18083.6 3499.11 18081.6 3513.12 18084.6 3527.12 18086.6 3540.12 18087.6 3554.12 18087.6 3568.12 18088.6 3581.12 18094.6 3595.12 18098.6 3609.12 18099.6 3622.12 18102.6 3636.12 18102.6 3650.12 18105.6 3664.12 18108.6 3677.12 18107.6 3691.12 18112.6 3705.12 18110.6 3718.12 18111.6 3732.12 18116.6 3746.12 18114.6 3760.12 18117.6 3773.12 18123 3787.12 18122.6 3801.12 18118.6 3814.13 18115.6 3828.13 18112.6 3842.13 18111.6 3855.13 18113.6 3869.13 18116.6 3883.13 18116.6 3897.13 18115.6 3910.13 18113.6 3924.13 18116.6 3938.13 18117.6 3951.13 18115.6 3965.13 18117.6 3979.13 18115.6 3992.13 18116.6 4006.13 18117.6 4020.13 18119.6 4034.13 18118.6 4047.13 18118.6 4061.13 18116.6 4075.13 18119.6 4088.13 18117.6 4102.13 18116.6 4116.14 18114.6 4130.14 18109.6 4143.14 18108.6 4157.14 18108.6 4171.14 18105.6 4184.14 18104.6 4198.14 18104.6 4212.14 18102.6 4225.14 18103.6 4239.14 18105.6 4253.14 18103.6 4267.14 18101.6 4280.14 18101.6 4294.14 18102.6 4308.14 18098.6 4321.14 18097.6 4335.14 18098.6 4349.14 18098.6 4363.14 18097.6 4376.14 18093.6 4390.14 18092.6 4404.14 18090.6 4417.15 18087.6 4431.15 18082.6 4445.15 18081.6 4458.15 18081.6 4472.15 18081.6 4486.15 18079.6 4500.15 18075.6 4513.15 18072.6 4527.15 18070.6 4541.15 18066.6 4554.15 18064.6 4568.15 18063.6 4582.15 18060.6 4595.15 18053.6 4609 18049.6" stroke="#C0504D" stroke-width="10.3125" stroke-linecap="round" stroke-linejoin="round" stroke-miterlimit="10" fill="none"/></g><g clip-path="url(#clip4)"><path d="M3211 18111 3225.11 18111 3239.11 18111 3252.11 18111 3266.11 18111 3280.11 18111 3294.11 18111 3307.11 18111 3321.11 18111 3335.11 18111 3348.11 18111 3362.11 18111 3376.11 18111 3390.11 18111 3403.11 18111 3417.11 18111 3431.11 18111 3444.11 18111 3458.11 18111 3472.11 18111 3485.11 18111 3499.11 18111 3513.12 18111 3527.12 18111 3540.12 18111 3554.12 18111 3568.12 18111 3581.12 18111 3595.12 18111 3609.12 18111 3622.12 18111 3636.12 18111 3650.12 18111 3664.12 18111 3677.12 18111 3691.12 18111 3705.12 18111 3718.12 18111 3732.12 18111 3746.12 18111 3760.12 18111 3773.12 18111 3787.12 18111 3801.12 18111 3814.13 18111 3828.13 18111 3842.13 18111 3855.13 18111 3869.13 18111 3883.13 18111 3897.13 18111 3910.13 18111 3924.13 18111 3938.13 18111 3951.13 18111 3965.13 18111 3979.13 18111 3992.13 18111 4006.13 18111 4020.13 18111 4034.13 18111 4047.13 18111 4061.13 18111 4075.13 18111 4088.13 18111 4102.13 18111 4116.14 18111 4130.14 18111 4143.14 18111 4157.14 18111 4171.14 18111 4184.14 18111 4198.14 18111 4212.14 18111 4225.14 18111 4239.14 18111 4253.14 18111 4267.14 18111 4280.14 18111 4294.14 18111 4308.14 18111 4321.14 18111 4335.14 18111 4349.14 18111 4363.14 18111 4376.14 18111 4390.14 18111 4404.14 18111 4417.15 18111 4431.15 18111 4445.15 18111 4458.15 18111 4472.15 18111 4486.15 18111 4500.15 18111 4513.15 18111 4527.15 18111 4541.15 18111 4554.15 18111 4568.15 18111 4582.15 18111 4595.15 18111 4609 18111" stroke="#9BBB59" stroke-width="10.3125" stroke-linecap="round" stroke-linejoin="round" stroke-miterlimit="10" fill="none"/></g><g clip-path="url(#clip5)"><path d="M3211 18226.6 3225.11 18226.6 3239.11 18226.6 3252.11 18226.6 3266.11 18226.6 3280.11 18226.6 3294.11 18226.6 3307.11 18226.6 3321.11 18454 3335.11 18454 3348.11 18454 3362.11 18454 3376.11 18454 3390.11 18454 3403.11 18454 3417.11 18454 3431.11 18454 3444.11 18454 3458.11 18454 3472.11 18454 3485.11 18454 3499.11 18454 3513.12 18454 3527.12 18454 3540.12 18440.6 3554.12 18425.6 3568.12 18425.6 3581.12 18397.6 3595.12 18397.6 3609.12 18397.6 3622.12 18369.6 3636.12 18369.6 3650.12 18336.6 3664.12 18336.6 3677.12 18336.6 3691.12 18302.6 3705.12 18302.6 3718.12 18286.6 3732.12 18269.6 3746.12 18269.6 3760.12 18220 3773.12 18220 3787.12 18220 3801.12 18220 3814.13 18220 3828.13 18220 3842.13 18220 3855.13 18220 3869.13 18220 3883.13 18220 3897.13 18220 3910.13 18220 3924.13 18220 3938.13 18220 3951.13 18220 3965.13 18220 3979.13 18220 3992.13 18220 4006.13 18220 4020.13 18220 4034.13 18220 4047.13 18220 4061.13 18220 4075.13 18220 4088.13 18220 4102.13 18220 4116.14 18220 4130.14 18220 4143.14 18220 4157.14 18220 4171.14 18220 4184.14 18220 4198.14 18220 4212.14 18220 4225.14 18220 4239.14 18220 4253.14 18220 4267.14 18220 4280.14 18220 4294.14 18220 4308.14 18220 4321.14 18220 4335.14 18336.6 4349.14 18454 4363.14 18454 4376.14 18454 4390.14 18454 4404.14 18454 4417.15 18454 4431.15 18454 4445.15 18454 4458.15 18454 4472.15 18454 4486.15 18454 4500.15 18454 4513.15 18454 4527.15 18454 4541.15 18454 4554.15 18454 4568.15 18454 4582.15 18454 4595.15 18454 4609 18454" stroke="#4F81BD" stroke-width="10.3125" stroke-linecap="round" stroke-linejoin="round" stroke-miterlimit="10" fill="none"/></g><g clip-path="url(#clip6)"><text fill="#595959" font-family="Calibri,Calibri_MSFontService,sans-serif" font-weight="400" font-size="50" transform="matrix(1 0 0 1 4662.97 17610)">0</text></g><g clip-path="url(#clip7)"><text fill="#595959" font-family="Calibri,Calibri_MSFontService,sans-serif" font-weight="400" font-size="50" transform="matrix(1 0 0 1 4662.97 17693)">50</text></g><g clip-path="url(#clip8)"><text fill="#595959" font-family="Calibri,Calibri_MSFontService,sans-serif" font-weight="400" font-size="50" transform="matrix(1 0 0 1 4662.97 17776)">100</text></g><g clip-path="url(#clip9)"><text fill="#595959" font-family="Calibri,Calibri_MSFontService,sans-serif" font-weight="400" font-size="50" transform="matrix(1 0 0 1 4662.97 17859)">150</text></g><g clip-path="url(#clip10)"><text fill="#595959" font-family="Calibri,Calibri_MSFontService,sans-serif" font-weight="400" font-size="50" transform="matrix(1 0 0 1 4662.97 17943)">200</text></g><g clip-path="url(#clip11)"><text fill="#595959" font-family="Calibri,Calibri_MSFontService,sans-serif" font-weight="400" font-size="50" transform="matrix(1 0 0 1 4662.97 18026)">250</text></g><g clip-path="url(#clip12)"><text fill="#595959" font-family="Calibri,Calibri_MSFontService,sans-serif" font-weight="400" font-size="50" transform="matrix(1 0 0 1 4662.97 18109)">300</text></g><g clip-path="url(#clip13)"><text fill="#595959" font-family="Calibri,Calibri_MSFontService,sans-serif" font-weight="400" font-size="50" transform="matrix(1 0 0 1 4662.97 18192)">350</text></g><g clip-path="url(#clip14)"><text fill="#595959" font-family="Calibri,Calibri_MSFontService,sans-serif" font-weight="400" font-size="50" transform="matrix(1 0 0 1 4662.97 18276)">400</text></g><g clip-path="url(#clip15)"><text fill="#595959" font-family="Calibri,Calibri_MSFontService,sans-serif" font-weight="400" font-size="50" transform="matrix(1 0 0 1 4662.97 18359)">450</text></g><g clip-path="url(#clip16)"><text fill="#595959" font-family="Calibri,Calibri_MSFontService,sans-serif" font-weight="400" font-size="50" transform="matrix(1 0 0 1 4662.97 18442)">500</text></g><g clip-path="url(#clip17)"><text fill="#595959" font-family="Calibri,Calibri_MSFontService,sans-serif" font-weight="400" font-size="50" transform="matrix(1 0 0 1 3049.75 18469)">20.00</text></g><g clip-path="url(#clip18)"><text fill="#595959" font-family="Calibri,Calibri_MSFontService,sans-serif" font-weight="400" font-size="50" transform="matrix(1 0 0 1 3049.75 18383)">20.50</text></g><g clip-path="url(#clip19)"><text fill="#595959" font-family="Calibri,Calibri_MSFontService,sans-serif" font-weight="400" font-size="50" transform="matrix(1 0 0 1 3049.75 18297)">21.00</text></g><g clip-path="url(#clip20)"><text fill="#595959" font-family="Calibri,Calibri_MSFontService,sans-serif" font-weight="400" font-size="50" transform="matrix(1 0 0 1 3049.75 18211)">21.50</text></g><g clip-path="url(#clip21)"><text fill="#595959" font-family="Calibri,Calibri_MSFontService,sans-serif" font-weight="400" font-size="50" transform="matrix(1 0 0 1 3049.75 18125)">22.00</text></g><g clip-path="url(#clip22)"><text fill="#595959" font-family="Calibri,Calibri_MSFontService,sans-serif" font-weight="400" font-size="50" transform="matrix(1 0 0 1 3049.75 18039)">22.50</text></g><g clip-path="url(#clip23)"><text fill="#595959" font-family="Calibri,Calibri_MSFontService,sans-serif" font-weight="400" font-size="50" transform="matrix(1 0 0 1 3049.75 17953)">23.00</text></g><g clip-path="url(#clip24)"><text fill="#595959" font-family="Calibri,Calibri_MSFontService,sans-serif" font-weight="400" font-size="50" transform="matrix(1 0 0 1 3049.75 17867)">23.50</text></g><g clip-path="url(#clip25)"><text fill="#595959" font-family="Calibri,Calibri_MSFontService,sans-serif" font-weight="400" font-size="50" transform="matrix(1 0 0 1 3049.75 17782)">24.00</text></g><g clip-path="url(#clip26)"><text fill="#595959" font-family="Calibri,Calibri_MSFontService,sans-serif" font-weight="400" font-size="50" transform="matrix(1 0 0 1 3049.75 17696)">24.50</text></g><g clip-path="url(#clip27)"><text fill="#595959" font-family="Calibri,Calibri_MSFontService,sans-serif" font-weight="400" font-size="50" transform="matrix(1 0 0 1 3049.75 17610)">25.00</text></g><g clip-path="url(#clip28)"><text fill="#595959" font-family="Calibri,Calibri_MSFontService,sans-serif" font-weight="400" font-size="50" transform="matrix(6.12323e-17 -1 1 6.12323e-17 3228.68 18576)">2:00</text></g><g clip-path="url(#clip29)"><text fill="#595959" font-family="Calibri,Calibri_MSFontService,sans-serif" font-weight="400" font-size="50" transform="matrix(6.12323e-17 -1 1 6.12323e-17 3297.2 18576)">2:20</text></g><g clip-path="url(#clip30)"><text fill="#595959" font-family="Calibri,Calibri_MSFontService,sans-serif" font-weight="400" font-size="50" transform="matrix(6.12323e-17 -1 1 6.12323e-17 3365.73 18576)">2:40</text></g><g clip-path="url(#clip31)"><text fill="#595959" font-family="Calibri,Calibri_MSFontService,sans-serif" font-weight="400" font-size="50" transform="matrix(6.12323e-17 -1 1 6.12323e-17 3434.25 18576)">3:00</text></g><g clip-path="url(#clip32)"><text fill="#595959" font-family="Calibri,Calibri_MSFontService,sans-serif" font-weight="400" font-size="50" transform="matrix(6.12323e-17 -1 1 6.12323e-17 3502.77 18576)">3:20</text></g><g clip-path="url(#clip33)"><text fill="#595959" font-family="Calibri,Calibri_MSFontService,sans-serif" font-weight="400" font-size="50" transform="matrix(6.12323e-17 -1 1 6.12323e-17 3571.3 18576)">3:40</text></g><g clip-path="url(#clip34)"><text fill="#595959" font-family="Calibri,Calibri_MSFontService,sans-serif" font-weight="400" font-size="50" transform="matrix(6.12323e-17 -1 1 6.12323e-17 3639.82 18576)">4:00</text></g><g clip-path="url(#clip35)"><text fill="#595959" font-family="Calibri,Calibri_MSFontService,sans-serif" font-weight="400" font-size="50" transform="matrix(6.12323e-17 -1 1 6.12323e-17 3708.34 18576)">4:20</text></g><g clip-path="url(#clip36)"><text fill="#595959" font-family="Calibri,Calibri_MSFontService,sans-serif" font-weight="400" font-size="50" transform="matrix(6.12323e-17 -1 1 6.12323e-17 3776.87 18576)">4:40</text></g><g clip-path="url(#clip37)"><text fill="#595959" font-family="Calibri,Calibri_MSFontService,sans-serif" font-weight="400" font-size="50" transform="matrix(6.12323e-17 -1 1 6.12323e-17 3845.39 18576)">5:00</text></g><g clip-path="url(#clip38)"><text fill="#595959" font-family="Calibri,Calibri_MSFontService,sans-serif" font-weight="400" font-size="50" transform="matrix(6.12323e-17 -1 1 6.12323e-17 3913.91 18576)">5:20</text></g><g clip-path="url(#clip39)"><text fill="#595959" font-family="Calibri,Calibri_MSFontService,sans-serif" font-weight="400" font-size="50" transform="matrix(6.12323e-17 -1 1 6.12323e-17 3982.44 18576)">5:40</text></g><g clip-path="url(#clip40)"><text fill="#595959" font-family="Calibri,Calibri_MSFontService,sans-serif" font-weight="400" font-size="50" transform="matrix(6.12323e-17 -1 1 6.12323e-17 4050.96 18576)">6:00</text></g><g clip-path="url(#clip41)"><text fill="#595959" font-family="Calibri,Calibri_MSFontService,sans-serif" font-weight="400" font-size="50" transform="matrix(6.12323e-17 -1 1 6.12323e-17 4119.48 18576)">6:20</text></g><g clip-path="url(#clip42)"><text fill="#595959" font-family="Calibri,Calibri_MSFontService,sans-serif" font-weight="400" font-size="50" transform="matrix(6.12323e-17 -1 1 6.12323e-17 4188.01 18576)">6:44</text></g><g clip-path="url(#clip43)"><text fill="#595959" font-family="Calibri,Calibri_MSFontService,sans-serif" font-weight="400" font-size="50" transform="matrix(6.12323e-17 -1 1 6.12323e-17 4256.53 18576)">7:04</text></g><g clip-path="url(#clip44)"><text fill="#595959" font-family="Calibri,Calibri_MSFontService,sans-serif" font-weight="400" font-size="50" transform="matrix(6.12323e-17 -1 1 6.12323e-17 4325.05 18576)">7:24</text></g><g clip-path="url(#clip45)"><text fill="#595959" font-family="Calibri,Calibri_MSFontService,sans-serif" font-weight="400" font-size="50" transform="matrix(6.12323e-17 -1 1 6.12323e-17 4393.58 18576)">7:44</text></g><g clip-path="url(#clip46)"><text fill="#595959" font-family="Calibri,Calibri_MSFontService,sans-serif" font-weight="400" font-size="50" transform="matrix(6.12323e-17 -1 1 6.12323e-17 4462.1 18576)">8:04</text></g><g clip-path="url(#clip47)"><text fill="#595959" font-family="Calibri,Calibri_MSFontService,sans-serif" font-weight="400" font-size="50" transform="matrix(6.12323e-17 -1 1 6.12323e-17 4530.62 18576)">8:24</text></g><g clip-path="url(#clip48)"><text fill="#595959" font-family="Calibri,Calibri_MSFontService,sans-serif" font-weight="400" font-size="50" transform="matrix(6.12323e-17 -1 1 6.12323e-17 4599.15 18576)">8:44</text></g><g clip-path="url(#clip49)"><text fill="#595959" font-family="Calibri,Calibri_MSFontService,sans-serif" font-weight="400" font-size="55" transform="matrix(6.12323e-17 -1 1 6.12323e-17 4805.37 18270)">Pozícia motora </text></g><g clip-path="url(#clip50)"><text fill="#595959" font-family="Calibri,Calibri_MSFontService,sans-serif" font-weight="400" font-size="55" transform="matrix(6.12323e-17 -1 1 6.12323e-17 4805.37 17929)">[steps]</text></g><g clip-path="url(#clip51)"><text fill="#595959" font-family="Calibri,Calibri_MSFontService,sans-serif" font-weight="400" font-size="55" transform="matrix(6.12323e-17 -1 1 6.12323e-17 3020.85 18154)">Teplota </text></g><g clip-path="url(#clip52)"><text fill="#595959" font-family="Calibri,Calibri_MSFontService,sans-serif" font-weight="400" font-size="55" transform="matrix(6.12323e-17 -1 1 6.12323e-17 3020.85 17977)">[</text></g><g clip-path="url(#clip53)"><text fill="#595959" font-family="Calibri,Calibri_MSFontService,sans-serif" font-weight="400" font-size="55" transform="matrix(6.12323e-17 -1 1 6.12323e-17 3020.85 17961)">°</text></g><g clip-path="url(#clip54)"><text fill="#595959" font-family="Calibri,Calibri_MSFontService,sans-serif" font-weight="400" font-size="55" transform="matrix(6.12323e-17 -1 1 6.12323e-17 3020.85 17942)">C</text></g><g clip-path="url(#clip55)"><text fill="#595959" font-family="Calibri,Calibri_MSFontService,sans-serif" font-weight="400" font-size="55" transform="matrix(6.12323e-17 -1 1 6.12323e-17 3020.85 17913)">]</text></g><g clip-path="url(#clip56)"><text fill="#595959" font-family="Calibri,Calibri_MSFontService,sans-serif" font-weight="400" font-size="55" transform="matrix(1 0 0 1 3808.36 18642)">Čas </text></g><g clip-path="url(#clip57)"><text fill="#595959" font-family="Calibri,Calibri_MSFontService,sans-serif" font-weight="400" font-size="55" transform="matrix(1 0 0 1 3898.01 18642)">[h:m]</text></g><g clip-path="url(#clip58)"><path d="M3304 18759 3392 18759" stroke="#C0504D" stroke-width="10.3125" stroke-linecap="round" stroke-linejoin="round" stroke-miterlimit="10" fill="none" fill-rule="evenodd"/></g><g clip-path="url(#clip59)"><text fill="#595959" font-family="Calibri,Calibri_MSFontService,sans-serif" font-weight="400" font-size="50" transform="matrix(1 0 0 1 3401.74 18773)">Teplota</text></g><g clip-path="url(#clip60)"><path d="M3625 18759 3713 18759" stroke="#9BBB59" stroke-width="10.3125" stroke-linecap="round" stroke-linejoin="round" stroke-miterlimit="10" fill="none" fill-rule="evenodd"/></g><g clip-path="url(#clip61)"><text fill="#595959" font-family="Calibri,Calibri_MSFontService,sans-serif" font-weight="400" font-size="50" transform="matrix(1 0 0 1 3722.07 18773)">Cieľová teplota</text></g><g clip-path="url(#clip62)"><path d="M4099 18759 4187 18759" stroke="#4F81BD" stroke-width="10.3125" stroke-linecap="round" stroke-linejoin="round" stroke-miterlimit="10" fill="none" fill-rule="evenodd"/></g><g clip-path="url(#clip63)"><text fill="#595959" font-family="Calibri,Calibri_MSFontService,sans-serif" font-weight="400" font-size="50" transform="matrix(1 0 0 1 4196.46 18773)">Pozícia motora</text></g><rect x="2912.5" y="17542.5" width="1966" height="1289" stroke="#D9D9D9" stroke-width="3.4375" stroke-linejoin="round" stroke-miterlimit="10" fill="none"/></g></svg>