<svg width="1980" height="1489" xmlns="http://www.w3.org/2000/svg" xmlns:xlink="http://www.w3.org/1999/xlink" xml:space="preserve" overflow="hidden"><defs><clipPath id="clip0"><rect x="3834" y="412" width="1980" height="1489"/></clipPath><clipPath id="clip1"><rect x="3834" y="412" width="1977" height="1487"/></clipPath><clipPath id="clip2"><rect x="3834" y="412" width="1977" height="1487"/></clipPath><clipPath id="clip3"><rect x="4091" y="463" width="1479" height="1067"/></clipPath><clipPath id="clip4"><rect x="4091" y="463" width="1479" height="1067"/></clipPath><clipPath id="clip5"><rect x="4091" y="463" width="1479" height="1067"/></clipPath><clipPath id="clip6"><rect x="3834" y="412" width="1977" height="1487"/></clipPath><clipPath id="clip7"><rect x="3834" y="412" width="1977" height="1487"/></clipPath><clipPath id="clip8"><rect x="3834" y="412" width="1977" height="1487"/></clipPath><clipPath id="clip9"><rect x="3834" y="412" width="1977" height="1487"/></clipPath><clipPath id="clip10"><rect x="3834" y="412" width="1977" height="1487"/></clipPath><clipPath id="clip11"><rect x="3834" y="412" width="1977" height="1487"/></clipPath><clipPath id="clip12"><rect x="3834" y="412" width="1977" height="1487"/></clipPath><clipPath id="clip13"><rect x="3834" y="412" width="1977" height="1487"/></clipPath><clipPath id="clip14"><rect x="3834" y="412" width="1977" height="1487"/></clipPath><clipPath id="clip15"><rect x="3834" y="412" width="1977" height="1487"/></clipPath><clipPath id="clip16"><rect x="3834" y="412" width="1977" height="1487"/></clipPath><clipPath id="clip17"><rect x="3834" y="412" width="1977" height="1487"/></clipPath><clipPath id="clip18"><rect x="3834" y="412" width="1977" height="1487"/></clipPath><clipPath id="clip19"><rect x="3834" y="412" width="1977" height="1487"/></clipPath><clipPath id="clip20"><rect x="3834" y="412" width="1977" height="1487"/></clipPath><clipPath id="clip21"><rect x="3834" y="412" width="1977" height="1487"/></clipPath><clipPath id="clip22"><rect x="3834" y="412" width="1977" height="1487"/></clipPath><clipPath id="clip23"><rect x="3834" y="412" width="1977" height="1487"/></clipPath><clipPath id="clip24"><rect x="3834" y="412" width="1977" height="1487"/></clipPath><clipPath id="clip25"><rect x="3834" y="412" width="1977" height="1487"/></clipPath><clipPath id="clip26"><rect x="3834" y="412" width="1977" height="1487"/></clipPath><clipPath id="clip27"><rect x="3834" y="412" width="1977" height="1487"/></clipPath><clipPath id="clip28"><rect x="3834" y="412" width="1977" height="1487"/></clipPath><clipPath id="clip29"><rect x="3834" y="412" width="1977" height="1487"/></clipPath><clipPath id="clip30"><rect x="3834" y="412" width="1977" height="1487"/></clipPath><clipPath id="clip31"><rect x="3834" y="412" width="1977" height="1487"/></clipPath><clipPath id="clip32"><rect x="3834" y="412" width="1977" height="1487"/></clipPath><clipPath id="clip33"><rect x="3834" y="412" width="1977" height="1487"/></clipPath><clipPath id="clip34"><rect x="3834" y="412" width="1977" height="1487"/></clipPath><clipPath id="clip35"><rect x="3834" y="412" width="1977" height="1487"/></clipPath><clipPath id="clip36"><rect x="3834" y="412" width="1977" height="1487"/></clipPath><clipPath id="clip37"><rect x="3834" y="412" width="1977" height="1487"/></clipPath><clipPath id="clip38"><rect x="3834" y="412" width="1977" height="1487"/></clipPath><clipPath id="clip39"><rect x="3834" y="412" width="1977" height="1487"/></clipPath><clipPath id="clip40"><rect x="3834" y="412" width="1977" height="1487"/></clipPath><clipPath id="clip41"><rect x="3834" y="412" width="1977" height="1487"/></clipPath><clipPath id="clip42"><rect x="3834" y="412" width="1977" height="1487"/></clipPath><clipPath id="clip43"><rect x="3834" y="412" width="1977" height="1487"/></clipPath><clipPath id="clip44"><rect x="3834" y="412" width="1977" height="1487"/></clipPath><clipPath id="clip45"><rect x="3834" y="412" width="1977" height="1487"/></clipPath><clipPath id="clip46"><rect x="3834" y="412" width="1977" height="1487"/></clipPath><clipPath id="clip47"><rect x="3834" y="412" width="1977" height="1487"/></clipPath><clipPath id="clip48"><rect x="3834" y="412" width="1977" height="1487"/></clipPath><clipPath id="clip49"><rect x="3834" y="412" width="1977" height="1487"/></clipPath><clipPath id="clip50"><rect x="3834" y="412" width="1977" height="1487"/></clipPath><clipPath id="clip51"><rect x="3834" y="412" width="1977" height="1487"/></clipPath><clipPath id="clip52"><rect x="3834" y="412" width="1977" height="1487"/></clipPath><clipPath id="clip53"><rect x="3834" y="412" width="1977" height="1487"/></clipPath><clipPath id="clip54"><rect x="3834" y="412" width="1977" height="1487"/></clipPath><clipPath id="clip55"><rect x="3834" y="412" width="1977" height="1487"/></clipPath><clipPath id="clip56"><rect x="3834" y="412" width="1977" height="1487"/></clipPath><clipPath id="clip57"><rect x="3834" y="412" width="1977" height="1487"/></clipPath><clipPath id="clip58"><rect x="3834" y="412" width="1977" height="1487"/></clipPath><clipPath id="clip59"><rect x="3834" y="412" width="1977" height="1487"/></clipPath><clipPath id="clip60"><rect x="3834" y="412" width="1977" height="1487"/></clipPath><clipPath id="clip61"><rect x="3834" y="412" width="1977" height="1487"/></clipPath><clipPath id="clip62"><rect x="3834" y="412" width="1977" height="1487"/></clipPath></defs><g clip-path="url(#clip0)" transform="translate(-3834 -412)"><rect x="3835" y="413" width="1977" height="1486" fill="#FFFFFF"/><g clip-path="url(#clip1)"><path d="M4091.5 1421.55 5566.5 1421.55M4091.5 1314.54 5566.5 1314.54M4091.5 1208.54 5566.5 1208.54M4091.5 1101.54 5566.5 1101.54M4091.5 995.533 5566.5 995.533M4091.5 889.529 5566.5 889.529M4091.5 782.526 5566.5 782.526M4091.5 676.522 5566.5 676.522M4091.5 569.519 5566.5 569.519M4091.5 463.5 5566.5 463.5" stroke="#D9D9D9" stroke-width="3.4375" stroke-linejoin="round" stroke-miterlimit="10" fill="none"/></g><g clip-path="url(#clip2)"><path d="M4091.5 1527.5 5566.5 1527.5" stroke="#D9D9D9" stroke-width="3.4375" stroke-linejoin="round" stroke-miterlimit="10" fill="none" fill-rule="evenodd"/></g><g clip-path="url(#clip3)"><path d="M4091 777.026 4098.13 800.026 4105.13 823.027 4112.13 846.028 4120.14 870.029 4127.14 894.029 4134.14 918.03 4141.14 918.03 4148.14 964.032 4155.14 964.032 4162.14 1011.03 4169.14 1011.03 4176.14 1011.03 4183.14 1059.03 4191.14 1059.03 4198.14 1082.04 4205.14 1105.04 4212.14 1105.04 4219.14 1152.04 4226.14 1152.04 4233.14 1152.04 4240.14 1152.04 4247.14 1152.04 4254.14 1152.04 4261.14 1175.04 4269.14 1198.04 4276.14 1198.04 4283.14 1198.04 4290.14 1198.04 4297.14 1246.04 4304.14 1246.04 4311.14 1246.04 4318.14 1246.04 4325.14 1246.04 4332.14 1246.04 4339.14 1246.04 4347.14 1246.04 4354.14 1246.04 4361.14 1269.04 4368.14 1269.04 4375.14 1293.04 4382.14 1246.04 4389.14 1246.04 4396.14 1198.04 4403.14 1152.04 4410.14 1152.04 4417.15 1152.04 4425.15 1105.04 4432.15 1105.04 4439.15 1059.03 4446.15 1059.03 4453.15 1011.03 4460.15 1011.03 4467.15 987.032 4474.15 964.032 4481.15 964.032 4488.15 964.032 4496.15 964.032 4503.15 964.032 4510.15 964.032 4517.15 964.032 4524.15 1011.03 4531.15 1011.03 4538.15 1011.03 4545.15 1035.03 4552.15 1082.04 4559.15 1105.04 4566.15 1105.04 4574.15 1105.04 4581.15 1128.04 4588.15 1152.04 4595.15 1152.04 4602.15 1152.04 4609.15 1152.04 4616.15 1175.04 4623.15 1198.04 4630.15 1198.04 4637.15 1222.04 4644.15 1246.04 4652.15 1246.04 4659.15 1246.04 4666.15 1246.04 4673.15 1246.04 4680.15 1269.04 4687.15 1293.04 4694.15 1293.04 4701.15 1293.04 4708.15 1339.04 4715.15 1339.04 4722.15 1339.04 4730.16 1339.04 4737.16 1339.04 4744.16 1339.04 4751.16 1363.04 4758.16 1387 4765.16 1387 4772.16 1387 4779.16 1387 4786.16 1339.04 4793.16 1293.04 4801.16 1222.04 4808.16 1198.04 4815.16 1152.04 4822.16 1082.04 4829.16 1059.03 4836.16 1011.03 4843.16 1011.03 4850.16 964.032 4857.16 964.032 4864.16 941.031 4871.16 918.03 4879.16 918.03 4886.16 870.029 4893.16 870.029 4900.16 870.029 4907.16 870.029 4914.16 870.029 4921.16 870.029 4928.16 918.03 4935.16 918.03 4942.16 918.03 4949.16 964.032 4957.16 964.032 4964.16 964.032 4971.16 1011.03 4978.16 1011.03 4985.16 1035.03 4992.16 1059.03 4999.16 1082.04 5006.16 1128.04 5013.16 1152.04 5020.16 1152.04 5028.17 1152.04 5035.17 1152.04 5042.17 1152.04 5049.17 1152.04 5056.17 1152.04 5063.17 1152.04 5070.17 1128.04 5077.17 1105.04 5084.17 1082.04 5091.17 1011.03 5098.17 987.032 5106.17 918.03 5113.17 870.029 5120.17 870.029 5127.17 823.027 5134.17 823.027 5141.17 823.027 5148.17 777.026 5155.17 777.026 5162.17 823.027 5169.17 823.027 5176.17 777.026 5184.17 846.028 5191.17 918.03 5198.17 964.032 5205.17 918.03 5212.17 846.028 5219.17 823.027 5226.17 777.026 5233.17 729.024 5240.17 729.024 5247.17 682.022 5254.17 636.021 5262.17 636.021 5269.17 636.021 5276.17 636.021 5283.17 636.021 5290.17 636.021 5297.17 636.021 5304.17 636.021 5311.17 683.022 5318.17 894.029 5325.17 870.029 5333.17 823.027 5340.18 777.026 5347.18 729.024 5354.18 729.024 5361.18 705.023 5368.18 682.022 5375.18 682.022 5382.18 682.022 5389.18 682.022 5396.18 636.021 5403.18 636.021 5411.18 636.021 5418.18 636.021 5425.18 636.021 5432.18 636.021 5439.18 636.021 5446.18 636.021 5453.18 588.019 5460.18 588.019 5467.18 588.019 5474.18 588.019 5481.18 588.019 5489.18 588.019 5496.18 588.019 5503.18 564.019 5510.18 541.018 5517.18 541.018 5524.18 541.018 5531.18 541.018 5538.18 541.018 5545.18 541.018 5552.18 518 5559.18 541.018 5567 541.018" stroke="#C0504D" stroke-width="10.3125" stroke-linecap="round" stroke-linejoin="round" stroke-miterlimit="10" fill="none"/></g><g clip-path="url(#clip4)"><path d="M4091 995 4098.13 995 4105.13 995 4112.13 995 4120.14 995 4127.14 995 4134.14 995 4141.14 995 4148.14 995 4155.14 995 4162.14 995 4169.14 995 4176.14 995 4183.14 995 4191.14 995 4198.14 995 4205.14 995 4212.14 995 4219.14 995 4226.14 995 4233.14 995 4240.14 995 4247.14 995 4254.14 995 4261.14 995 4269.14 995 4276.14 995 4283.14 995 4290.14 995 4297.14 995 4304.14 995 4311.14 995 4318.14 995 4325.14 995 4332.14 995 4339.14 995 4347.14 995 4354.14 995 4361.14 995 4368.14 995 4375.14 995 4382.14 995 4389.14 995 4396.14 995 4403.14 995 4410.14 995 4417.15 995 4425.15 995 4432.15 995 4439.15 995 4446.15 995 4453.15 995 4460.15 995 4467.15 995 4474.15 995 4481.15 995 4488.15 995 4496.15 995 4503.15 995 4510.15 995 4517.15 995 4524.15 995 4531.15 995 4538.15 995 4545.15 995 4552.15 995 4559.15 995 4566.15 995 4574.15 995 4581.15 995 4588.15 995 4595.15 995 4602.15 995 4609.15 995 4616.15 995 4623.15 995 4630.15 995 4637.15 995 4644.15 995 4652.15 995 4659.15 995 4666.15 995 4673.15 995 4680.15 995 4687.15 995 4694.15 995 4701.15 995 4708.15 995 4715.15 995 4722.15 995 4730.16 995 4737.16 995 4744.16 995 4751.16 995 4758.16 995 4765.16 995 4772.16 995 4779.16 995 4786.16 995 4793.16 995 4801.16 995 4808.16 995 4815.16 995 4822.16 995 4829.16 995 4836.16 995 4843.16 995 4850.16 995 4857.16 995 4864.16 995 4871.16 995 4879.16 995 4886.16 995 4893.16 995 4900.16 995 4907.16 995 4914.16 995 4921.16 995 4928.16 995 4935.16 995 4942.16 995 4949.16 995 4957.16 995 4964.16 995 4971.16 995 4978.16 995 4985.16 995 4992.16 995 4999.16 995 5006.16 995 5013.16 995 5020.16 995 5028.17 995 5035.17 995 5042.17 995 5049.17 995 5056.17 995 5063.17 995 5070.17 995 5077.17 995 5084.17 995 5091.17 995 5098.17 995 5106.17 995 5113.17 995 5120.17 995 5127.17 995 5134.17 995 5141.17 995 5148.17 995 5155.17 995 5162.17 995 5169.17 995 5176.17 995 5184.17 995 5191.17 995 5198.17 995 5205.17 995 5212.17 995 5219.17 995 5226.17 995 5233.17 995 5240.17 995 5247.17 995 5254.17 995 5262.17 995 5269.17 995 5276.17 995 5283.17 995 5290.17 995 5297.17 995 5304.17 995 5311.17 995 5318.17 995 5325.17 995 5333.17 995 5340.18 995 5347.18 995 5354.18 995 5361.18 995 5368.18 995 5375.18 995 5382.18 995 5389.18 995 5396.18 995 5403.18 995 5411.18 995 5418.18 995 5425.18 995 5432.18 995 5439.18 995 5446.18 995 5453.18 995 5460.18 995 5467.18 995 5474.18 995 5481.18 995 5489.18 995 5496.18 995 5503.18 995 5510.18 995 5517.18 995 5524.18 995 5531.18 995 5538.18 995 5545.18 995 5552.18 995 5559.18 995 5567 995" stroke="#9BBB59" stroke-width="10.3125" stroke-linecap="round" stroke-linejoin="round" stroke-miterlimit="10" fill="none"/></g><g clip-path="url(#clip5)"><path d="M4091 1528 4098.13 1528 4105.13 1528 4112.13 1528 4120.14 1528 4127.14 1528 4134.14 1528 4141.14 1528 4148.14 1528 4155.14 1528 4162.14 1528 4169.14 1528 4176.14 1528 4183.14 1528 4191.14 1528 4198.14 1528 4205.14 1528 4212.14 1528 4219.14 1528 4226.14 1492.05 4233.14 1492.05 4240.14 1456.05 4247.14 1456.05 4254.14 1456.05 4261.14 1420.05 4269.14 1466.05 4276.14 1430.05 4283.14 1430.05 4290.14 1430.05 4297.14 1394.05 4304.14 1394.05 4311.14 1377.05 4318.14 1359.04 4325.14 1359.04 4332.14 1403.05 4339.14 1367.04 4347.14 1367.04 4354.14 1331.04 4361.14 1331.04 4368.14 1313.04 4375.14 1295.04 4382.14 1295.04 4389.14 1295.04 4396.14 1295.04 4403.14 1295.04 4410.14 1295.04 4417.15 1295.04 4425.15 1295.04 4432.15 1295.04 4439.15 1295.04 4446.15 1295.04 4453.15 1295.04 4460.15 1295.04 4467.15 1314.04 4474.15 1333.04 4481.15 1333.04 4488.15 1373.05 4496.15 1393.05 4503.15 1413.05 4510.15 1413.05 4517.15 1454.05 4524.15 1454.05 4531.15 1474.05 4538.15 1494.05 4545.15 1494.05 4552.15 1494.05 4559.15 1494.05 4566.15 1494.05 4574.15 1494.05 4581.15 1494.05 4588.15 1476.05 4595.15 1458.05 4602.15 1458.05 4609.15 1422.05 4616.15 1422.05 4623.15 1422.05 4630.15 1423.05 4637.15 1460.05 4644.15 1424.05 4652.15 1424.05 4659.15 1424.05 4666.15 1460.05 4673.15 1424.05 4680.15 1496.05 4687.15 1460.05 4694.15 1460.05 4701.15 1442.05 4708.15 1424.05 4715.15 1424.05 4722.15 1388.05 4730.16 1388.05 4737.16 1388.05 4744.16 1352.04 4751.16 1352.04 4758.16 1310.04 4765.16 1310.04 4772.16 1289.04 4779.16 1268 4786.16 1268 4793.16 1268 4801.16 1268 4808.16 1268 4815.16 1268 4822.16 1268 4829.16 1268 4836.16 1268 4843.16 1268 4850.16 1268 4857.16 1268 4864.16 1268 4871.16 1268 4879.16 1268 4886.16 1304.04 4893.16 1304.04 4900.16 1322.04 4907.16 1340.04 4914.16 1340.04 4921.16 1375.05 4928.16 1375.05 4935.16 1375.05 4942.16 1375.05 4949.16 1375.05 4957.16 1375.05 4964.16 1375.05 4971.16 1375.05 4978.16 1375.05 4985.16 1375.05 4992.16 1375.05 4999.16 1375.05 5006.16 1375.05 5013.16 1375.05 5020.16 1358.04 5028.17 1340.04 5035.17 1340.04 5042.17 1304.04 5049.17 1304.04 5056.17 1286.04 5063.17 1268 5070.17 1268 5077.17 1268 5084.17 1268 5091.17 1268 5098.17 1268 5106.17 1268 5113.17 1268 5120.17 1268 5127.17 1528 5134.17 1528 5141.17 1528 5148.17 1528 5155.17 1528 5162.17 1528 5169.17 1528 5176.17 1528 5184.17 1528 5191.17 1528 5198.17 1528 5205.17 1528 5212.17 1528 5219.17 1528 5226.17 1528 5233.17 1528 5240.17 1528 5247.17 1528 5254.17 1528 5262.17 1528 5269.17 1528 5276.17 1528 5283.17 1528 5290.17 1528 5297.17 1528 5304.17 1528 5311.17 1528 5318.17 1528 5325.17 1528 5333.17 1528 5340.18 1528 5347.18 1528 5354.18 1528 5361.18 1528 5368.18 1528 5375.18 1528 5382.18 1528 5389.18 1528 5396.18 1528 5403.18 1528 5411.18 1528 5418.18 1528 5425.18 1528 5432.18 1528 5439.18 1528 5446.18 1528 5453.18 1528 5460.18 1528 5467.18 1528 5474.18 1528 5481.18 1528 5489.18 1528 5496.18 1528 5503.18 1528 5510.18 1528 5517.18 1528 5524.18 1528 5531.18 1528 5538.18 1528 5545.18 1528 5552.18 1528 5559.18 1528 5567 1528" stroke="#4F81BD" stroke-width="10.3125" stroke-linecap="round" stroke-linejoin="round" stroke-miterlimit="10" fill="none"/></g><g clip-path="url(#clip6)"><text fill="#595959" font-family="Calibri,Calibri_MSFontService,sans-serif" font-weight="400" font-size="46" transform="matrix(1 0 0 1 5609.28 477)">0</text></g><g clip-path="url(#clip7)"><text fill="#595959" font-family="Calibri,Calibri_MSFontService,sans-serif" font-weight="400" font-size="46" transform="matrix(1 0 0 1 5609.28 688)">100</text></g><g clip-path="url(#clip8)"><text fill="#595959" font-family="Calibri,Calibri_MSFontService,sans-serif" font-weight="400" font-size="46" transform="matrix(1 0 0 1 5609.28 899)">200</text></g><g clip-path="url(#clip9)"><text fill="#595959" font-family="Calibri,Calibri_MSFontService,sans-serif" font-weight="400" font-size="46" transform="matrix(1 0 0 1 5609.28 1110)">300</text></g><g clip-path="url(#clip10)"><text fill="#595959" font-family="Calibri,Calibri_MSFontService,sans-serif" font-weight="400" font-size="46" transform="matrix(1 0 0 1 5609.28 1321)">400</text></g><g clip-path="url(#clip11)"><text fill="#595959" font-family="Calibri,Calibri_MSFontService,sans-serif" font-weight="400" font-size="46" transform="matrix(1 0 0 1 5609.28 1533)">500</text></g><g clip-path="url(#clip12)"><text fill="#595959" font-family="Calibri,Calibri_MSFontService,sans-serif" font-weight="400" font-size="46" transform="matrix(1 0 0 1 3967.54 1541)">19.0</text></g><g clip-path="url(#clip13)"><text fill="#595959" font-family="Calibri,Calibri_MSFontService,sans-serif" font-weight="400" font-size="46" transform="matrix(1 0 0 1 3967.54 1435)">19.4</text></g><g clip-path="url(#clip14)"><text fill="#595959" font-family="Calibri,Calibri_MSFontService,sans-serif" font-weight="400" font-size="46" transform="matrix(1 0 0 1 3967.54 1328)">19.8</text></g><g clip-path="url(#clip15)"><text fill="#595959" font-family="Calibri,Calibri_MSFontService,sans-serif" font-weight="400" font-size="46" transform="matrix(1 0 0 1 3967.54 1222)">20.2</text></g><g clip-path="url(#clip16)"><text fill="#595959" font-family="Calibri,Calibri_MSFontService,sans-serif" font-weight="400" font-size="46" transform="matrix(1 0 0 1 3967.54 1115)">20.6</text></g><g clip-path="url(#clip17)"><text fill="#595959" font-family="Calibri,Calibri_MSFontService,sans-serif" font-weight="400" font-size="46" transform="matrix(1 0 0 1 3967.54 1009)">21.0</text></g><g clip-path="url(#clip18)"><text fill="#595959" font-family="Calibri,Calibri_MSFontService,sans-serif" font-weight="400" font-size="46" transform="matrix(1 0 0 1 3967.54 903)">21.4</text></g><g clip-path="url(#clip19)"><text fill="#595959" font-family="Calibri,Calibri_MSFontService,sans-serif" font-weight="400" font-size="46" transform="matrix(1 0 0 1 3967.54 796)">21.8</text></g><g clip-path="url(#clip20)"><text fill="#595959" font-family="Calibri,Calibri_MSFontService,sans-serif" font-weight="400" font-size="46" transform="matrix(1 0 0 1 3967.54 690)">22.2</text></g><g clip-path="url(#clip21)"><text fill="#595959" font-family="Calibri,Calibri_MSFontService,sans-serif" font-weight="400" font-size="46" transform="matrix(1 0 0 1 3967.54 583)">22.6</text></g><g clip-path="url(#clip22)"><text fill="#595959" font-family="Calibri,Calibri_MSFontService,sans-serif" font-weight="400" font-size="46" transform="matrix(1 0 0 1 3967.54 477)">23.0</text></g><g clip-path="url(#clip23)"><text fill="#595959" font-family="Calibri,Calibri_MSFontService,sans-serif" font-weight="400" font-size="46" transform="matrix(6.12323e-17 -1 1 6.12323e-17 4107.37 1662)">11:04</text></g><g clip-path="url(#clip24)"><text fill="#595959" font-family="Calibri,Calibri_MSFontService,sans-serif" font-weight="400" font-size="46" transform="matrix(6.12323e-17 -1 1 6.12323e-17 4171.21 1662)">11:40</text></g><g clip-path="url(#clip25)"><text fill="#595959" font-family="Calibri,Calibri_MSFontService,sans-serif" font-weight="400" font-size="46" transform="matrix(6.12323e-17 -1 1 6.12323e-17 4235.05 1662)">12:16</text></g><g clip-path="url(#clip26)"><text fill="#595959" font-family="Calibri,Calibri_MSFontService,sans-serif" font-weight="400" font-size="46" transform="matrix(6.12323e-17 -1 1 6.12323e-17 4298.89 1662)">12:52</text></g><g clip-path="url(#clip27)"><text fill="#595959" font-family="Calibri,Calibri_MSFontService,sans-serif" font-weight="400" font-size="46" transform="matrix(6.12323e-17 -1 1 6.12323e-17 4362.73 1662)">13:28</text></g><g clip-path="url(#clip28)"><text fill="#595959" font-family="Calibri,Calibri_MSFontService,sans-serif" font-weight="400" font-size="46" transform="matrix(6.12323e-17 -1 1 6.12323e-17 4426.57 1662)">14:04</text></g><g clip-path="url(#clip29)"><text fill="#595959" font-family="Calibri,Calibri_MSFontService,sans-serif" font-weight="400" font-size="46" transform="matrix(6.12323e-17 -1 1 6.12323e-17 4490.42 1662)">14:40</text></g><g clip-path="url(#clip30)"><text fill="#595959" font-family="Calibri,Calibri_MSFontService,sans-serif" font-weight="400" font-size="46" transform="matrix(6.12323e-17 -1 1 6.12323e-17 4554.26 1662)">15:16</text></g><g clip-path="url(#clip31)"><text fill="#595959" font-family="Calibri,Calibri_MSFontService,sans-serif" font-weight="400" font-size="46" transform="matrix(6.12323e-17 -1 1 6.12323e-17 4618.1 1662)">15:52</text></g><g clip-path="url(#clip32)"><text fill="#595959" font-family="Calibri,Calibri_MSFontService,sans-serif" font-weight="400" font-size="46" transform="matrix(6.12323e-17 -1 1 6.12323e-17 4681.94 1662)">16:28</text></g><g clip-path="url(#clip33)"><text fill="#595959" font-family="Calibri,Calibri_MSFontService,sans-serif" font-weight="400" font-size="46" transform="matrix(6.12323e-17 -1 1 6.12323e-17 4745.78 1662)">17:04</text></g><g clip-path="url(#clip34)"><text fill="#595959" font-family="Calibri,Calibri_MSFontService,sans-serif" font-weight="400" font-size="46" transform="matrix(6.12323e-17 -1 1 6.12323e-17 4809.62 1662)">17:40</text></g><g clip-path="url(#clip35)"><text fill="#595959" font-family="Calibri,Calibri_MSFontService,sans-serif" font-weight="400" font-size="46" transform="matrix(6.12323e-17 -1 1 6.12323e-17 4873.46 1662)">18:16</text></g><g clip-path="url(#clip36)"><text fill="#595959" font-family="Calibri,Calibri_MSFontService,sans-serif" font-weight="400" font-size="46" transform="matrix(6.12323e-17 -1 1 6.12323e-17 4937.3 1662)">18:52</text></g><g clip-path="url(#clip37)"><text fill="#595959" font-family="Calibri,Calibri_MSFontService,sans-serif" font-weight="400" font-size="46" transform="matrix(6.12323e-17 -1 1 6.12323e-17 5001.14 1662)">19:28</text></g><g clip-path="url(#clip38)"><text fill="#595959" font-family="Calibri,Calibri_MSFontService,sans-serif" font-weight="400" font-size="46" transform="matrix(6.12323e-17 -1 1 6.12323e-17 5064.98 1662)">20:04</text></g><g clip-path="url(#clip39)"><text fill="#595959" font-family="Calibri,Calibri_MSFontService,sans-serif" font-weight="400" font-size="46" transform="matrix(6.12323e-17 -1 1 6.12323e-17 5128.82 1662)">20:40</text></g><g clip-path="url(#clip40)"><text fill="#595959" font-family="Calibri,Calibri_MSFontService,sans-serif" font-weight="400" font-size="46" transform="matrix(6.12323e-17 -1 1 6.12323e-17 5192.66 1662)">21:16</text></g><g clip-path="url(#clip41)"><text fill="#595959" font-family="Calibri,Calibri_MSFontService,sans-serif" font-weight="400" font-size="46" transform="matrix(6.12323e-17 -1 1 6.12323e-17 5256.5 1662)">21:52</text></g><g clip-path="url(#clip42)"><text fill="#595959" font-family="Calibri,Calibri_MSFontService,sans-serif" font-weight="400" font-size="46" transform="matrix(6.12323e-17 -1 1 6.12323e-17 5320.34 1662)">22:28</text></g><g clip-path="url(#clip43)"><text fill="#595959" font-family="Calibri,Calibri_MSFontService,sans-serif" font-weight="400" font-size="46" transform="matrix(6.12323e-17 -1 1 6.12323e-17 5384.18 1662)">23:04</text></g><g clip-path="url(#clip44)"><text fill="#595959" font-family="Calibri,Calibri_MSFontService,sans-serif" font-weight="400" font-size="46" transform="matrix(6.12323e-17 -1 1 6.12323e-17 5448.02 1662)">23:40</text></g><g clip-path="url(#clip45)"><text fill="#595959" font-family="Calibri,Calibri_MSFontService,sans-serif" font-weight="400" font-size="46" transform="matrix(6.12323e-17 -1 1 6.12323e-17 5511.86 1639)">0:16</text></g><g clip-path="url(#clip46)"><text fill="#595959" font-family="Calibri,Calibri_MSFontService,sans-serif" font-weight="400" font-size="46" transform="matrix(6.12323e-17 -1 1 6.12323e-17 5575.71 1639)">0:52</text></g><g clip-path="url(#clip47)"><text fill="#595959" font-family="Calibri,Calibri_MSFontService,sans-serif" font-weight="400" font-size="50" transform="matrix(6.12323e-17 -1 1 6.12323e-17 5740.76 1223)">Poz</text></g><g clip-path="url(#clip48)"><text fill="#595959" font-family="Calibri,Calibri_MSFontService,sans-serif" font-weight="400" font-size="50" transform="matrix(6.12323e-17 -1 1 6.12323e-17 5740.76 1150)">ícia motora </text></g><g clip-path="url(#clip49)"><text fill="#595959" font-family="Calibri,Calibri_MSFontService,sans-serif" font-weight="400" font-size="50" transform="matrix(6.12323e-17 -1 1 6.12323e-17 5740.76 907)">[steps]</text></g><g clip-path="url(#clip50)"><text fill="#595959" font-family="Calibri,Calibri_MSFontService,sans-serif" font-weight="400" font-size="50" transform="matrix(6.12323e-17 -1 1 6.12323e-17 3940.25 1116)">Teplota </text></g><g clip-path="url(#clip51)"><text fill="#595959" font-family="Calibri,Calibri_MSFontService,sans-serif" font-weight="400" font-size="50" transform="matrix(6.12323e-17 -1 1 6.12323e-17 3940.25 950)">[</text></g><g clip-path="url(#clip52)"><text fill="#595959" font-family="Calibri,Calibri_MSFontService,sans-serif" font-weight="400" font-size="50" transform="matrix(6.12323e-17 -1 1 6.12323e-17 3940.25 934)">°</text></g><g clip-path="url(#clip53)"><text fill="#595959" font-family="Calibri,Calibri_MSFontService,sans-serif" font-weight="400" font-size="50" transform="matrix(6.12323e-17 -1 1 6.12323e-17 3940.25 917)">C</text></g><g clip-path="url(#clip54)"><text fill="#595959" font-family="Calibri,Calibri_MSFontService,sans-serif" font-weight="400" font-size="50" transform="matrix(6.12323e-17 -1 1 6.12323e-17 3940.25 890)">]</text></g><g clip-path="url(#clip55)"><text fill="#595959" font-family="Calibri,Calibri_MSFontService,sans-serif" font-weight="400" font-size="46" transform="matrix(1 0 0 1 4741.19 1720)">Čas </text></g><g clip-path="url(#clip56)"><text fill="#595959" font-family="Calibri,Calibri_MSFontService,sans-serif" font-weight="400" font-size="46" transform="matrix(1 0 0 1 4815.85 1720)">[h:m]</text></g><g clip-path="url(#clip57)"><path d="M4168 1830 4256 1830" stroke="#C0504D" stroke-width="10.3125" stroke-linecap="round" stroke-linejoin="round" stroke-miterlimit="10" fill="none" fill-rule="evenodd"/></g><g clip-path="url(#clip58)"><text fill="#595959" font-family="Calibri,Calibri_MSFontService,sans-serif" font-weight="400" font-size="46" transform="matrix(1 0 0 1 4265.51 1844)">Nameraná teplota</text></g><g clip-path="url(#clip59)"><path d="M4679 1830 4767 1830" stroke="#9BBB59" stroke-width="10.3125" stroke-linecap="round" stroke-linejoin="round" stroke-miterlimit="10" fill="none" fill-rule="evenodd"/></g><g clip-path="url(#clip60)"><text fill="#595959" font-family="Calibri,Calibri_MSFontService,sans-serif" font-weight="400" font-size="46" transform="matrix(1 0 0 1 4775.91 1844)">Cieľová teplota</text></g><g clip-path="url(#clip61)"><path d="M5131 1830 5219 1830" stroke="#4F81BD" stroke-width="10.3125" stroke-linecap="round" stroke-linejoin="round" stroke-miterlimit="10" fill="none" fill-rule="evenodd"/></g><g clip-path="url(#clip62)"><text fill="#595959" font-family="Calibri,Calibri_MSFontService,sans-serif" font-weight="400" font-size="46" transform="matrix(1 0 0 1 5228.03 1844)">Pozíca motora</text></g><rect x="3835.5" y="413.5" width="1977" height="1486" stroke="#D9D9D9" stroke-width="3.4375" stroke-linejoin="round" stroke-miterlimit="10" fill="none"/></g></svg>